<svg width="265" height="302" viewBox="0 0 265 302" fill="none" xmlns="http://www.w3.org/2000/svg" xmlns:xlink="http://www.w3.org/1999/xlink">
<path d="M68.715 66.7949C71.793 70.2634 65.1241 74.4675 65.204 79.4338C65.2839 84.4002 69.9204 85.0175 66.7949 88.7213C63.6694 92.425 58.4254 87.6556 53.2895 87.3157C48.1535 86.9759 46.8672 93.032 43.4669 89.2003C40.0667 85.3686 45.8098 83.3694 46.0829 78.2294C46.356 73.0895 42.4208 69.0453 46.2885 65.6131C50.1561 62.1809 51.1028 67.9206 56.2388 68.2605C61.3748 68.6004 65.637 63.3264 68.715 66.7949Z" fill="#D4C9FF"/>
<path d="M249.724 224.73C253.07 226.415 249.761 230.683 251.488 234.022C253.215 237.361 256.706 236.786 255.739 239.957C254.771 243.129 249.453 241.028 245.702 241.897C241.95 242.767 243.076 247.134 239.379 245.273C235.683 243.411 239.077 240.831 237.542 237.3C236.007 233.768 231.86 231.877 233.444 228.731C235.029 225.584 237.63 229.26 241.381 228.39C245.133 227.521 246.378 223.045 249.724 224.73Z" fill="#D4C9FF"/>
<g filter="url(#filter0_f_7_51)">
<path d="M204.866 70.1904C171.309 37.3014 150.521 44.7369 146.294 45.3339C142.067 45.3287 136.068 48.5027 124.911 52.9785C113.18 58.3146 107.43 60.5395 101.476 67.8583C90.2361 81.6757 82.4229 97.2488 81.6842 109.25C80.4102 129.949 78.6678 133.2 68.4813 151.415C63.7314 159.908 59.9534 167.535 54.7956 182.546C49.6811 197.431 55.122 233.109 61.1539 241.817C68.2951 252.128 83.7116 264.363 92.5532 269.041C96.5792 271.171 108.857 272 108.857 272C108.857 272 148.754 271.928 165.206 265.934C182.039 259.802 196.861 256.183 213.084 227.44C221.56 212.423 228.701 195.563 232.275 180.595C233.933 173.65 237.321 157.845 232.562 133.395C226.398 101.73 216.339 81.4348 204.866 70.1904Z" fill="#EBE2FF"/>
<path d="M182.103 55.9868C148.546 23.0978 127.758 30.5333 123.531 31.1303C119.304 31.1251 113.304 34.2991 102.147 38.7749C90.4166 44.1109 84.667 46.3359 78.7132 53.6547C67.4728 67.4721 59.6596 83.0452 58.9209 95.0468C57.6469 115.746 55.9045 118.996 45.718 137.211C40.9681 145.705 37.1901 153.331 32.0323 168.342C26.9178 183.227 32.3587 218.905 38.3906 227.614C45.5318 237.924 60.9483 250.16 69.7899 254.837C73.8159 256.967 86.0933 257.796 86.0933 257.796C86.0933 257.796 125.991 257.724 142.443 251.731C159.276 245.598 174.098 241.98 190.321 213.237C198.797 198.219 205.938 181.359 209.512 166.392C211.17 159.447 214.558 143.641 209.799 119.192C203.635 87.5266 193.576 67.2312 182.103 55.9868Z" fill="#EBE2FF"/>
</g>
<path d="M191.378 76.675C161.731 49.243 143.366 55.4448 139.631 55.9428C135.897 55.9384 130.597 58.5858 120.74 62.3189C110.376 66.7696 105.296 68.6254 100.036 74.7299C90.1059 86.2546 83.2032 99.2438 82.5507 109.254C81.4251 126.519 79.8858 129.23 70.8863 144.422C66.69 151.507 63.3522 157.868 58.7955 170.388C54.277 182.804 59.0839 212.562 64.4128 219.825C70.7219 228.425 84.3418 238.63 92.153 242.532C95.7099 244.309 106.557 245 106.557 245C106.557 245 141.805 244.94 156.339 239.941C171.211 234.826 184.306 231.808 198.638 207.834C206.126 195.308 212.435 181.245 215.592 168.761C217.058 162.969 220.051 149.785 215.846 129.393C210.401 102.982 201.514 86.0537 191.378 76.675Z" fill="#D4C9FF"/>
<path d="M139.631 55.9428C143.366 55.4448 161.731 49.243 191.378 76.675C201.514 86.0537 210.401 102.982 215.846 129.393C220.051 149.785 217.058 162.969 215.592 168.761C212.435 181.245 206.126 195.308 198.638 207.834C184.306 231.808 171.211 234.826 156.339 239.941C141.805 244.94 106.557 245 106.557 245C106.557 245 95.7099 244.309 92.153 242.532C84.3418 238.63 70.7219 228.425 64.4128 219.825C59.0839 212.562 54.277 182.804 58.7955 170.388C63.3522 157.868 66.69 151.507 70.8863 144.422C79.8858 129.23 81.4251 126.519 82.5507 109.254C83.2032 99.2438 90.1059 86.2546 100.036 74.7299C105.296 68.6254 110.376 66.7696 120.74 62.3189C130.597 58.5858 135.897 55.9384 139.631 55.9428ZM139.631 55.9428C139.631 55.9428 128.245 59.0985 130.563 58.9564" stroke="#D4C9FF" stroke-width="2" stroke-linecap="round" stroke-linejoin="round"/>
<path d="M179.031 70.5342C151.226 44.546 134.001 50.4214 130.499 50.8932C126.997 50.889 122.025 53.3971 112.781 56.9337C103.061 61.1502 98.2967 62.9083 93.3634 68.6915C84.0497 79.6096 77.5757 91.9152 76.9637 101.399C75.9081 117.755 74.4643 120.323 66.0238 134.716C62.0881 141.427 58.9577 147.454 54.684 159.315C50.4461 171.077 54.9544 199.269 59.9524 206.15C65.8696 214.297 78.6435 223.966 85.9696 227.662C89.3056 229.345 99.4785 230 99.4785 230C99.4785 230 132.537 229.943 146.169 225.207C160.117 220.361 172.399 217.502 185.841 194.79C192.864 182.923 198.781 169.601 201.742 157.774C203.116 152.286 205.923 139.797 201.98 120.477C196.873 95.4563 188.538 79.4193 179.031 70.5342Z" fill="#FFFBEB"/>
<path d="M130.499 50.8932C134.001 50.4214 151.226 44.546 179.031 70.5342C188.538 79.4193 196.873 95.4563 201.98 120.477C205.923 139.797 203.116 152.286 201.742 157.774C198.781 169.601 192.864 182.923 185.841 194.79C172.399 217.502 160.117 220.361 146.169 225.207C132.537 229.943 99.4785 230 99.4785 230C99.4785 230 89.3056 229.345 85.9696 227.662C78.6435 223.966 65.8696 214.297 59.9524 206.15C54.9544 199.269 50.4461 171.077 54.684 159.315C58.9577 147.454 62.0881 141.427 66.0238 134.716C74.4643 120.323 75.9081 117.755 76.9637 101.399C77.5757 91.9152 84.0497 79.6096 93.3634 68.6915C98.2967 62.9083 103.061 61.1502 112.781 56.9337C122.025 53.3971 126.997 50.889 130.499 50.8932ZM130.499 50.8932C130.499 50.8932 119.82 53.8828 121.993 53.7482" stroke="#D4C9FF" stroke-width="2" stroke-linecap="round" stroke-linejoin="round"/>
<circle cx="114" cy="116" r="5" fill="#D4C9FF"/>
<circle cx="159" cy="116" r="5" fill="#D4C9FF"/>
<path d="M126 129.141C126 129.149 126.003 129.701 126.091 130.708C126.164 131.535 126.82 132.289 127.667 133.241C128.821 134.538 129.904 135.3 130.199 135.493C130.536 135.714 131.249 136.001 132.225 136.339C133.125 136.651 134.455 136.801 136.1 136.934C137.802 137.071 138.964 136.964 139.541 136.892C140.281 136.8 141.306 136.504 142.319 136.192C142.838 136.032 143.415 135.682 144.342 135.109C145.798 134.209 145.227 134.604 145.595 134.163C145.811 133.905 146.983 132.756 147.203 131.959C147.423 131.161 147.561 130.064 147.542 129.509C147.523 128.953 147.344 128.973 144.604 129.023C141.865 129.074 136.571 129.153 133.442 129.188C130.313 129.222 129.51 129.208 128.722 129.199C127.934 129.19 127.187 129.188 126.738 129.184C126.289 129.18 126.162 129.175 126.03 129.17" stroke="#D4C9FF" stroke-width="2" stroke-linecap="round" stroke-linejoin="round"/>
<path d="M128.288 130.422C128.422 130.598 128.256 130.877 128.244 130.9C128.118 131.137 128.194 130.766 128.288 130.422C128.341 130.224 128.401 130.036 128.431 129.975C128.753 129.337 128.206 131.647 128.273 131.482C128.541 130.819 129.17 130.206 129.334 130.059C129.363 130.033 129.405 130.019 130.101 130.099C130.797 130.178 132.151 130.355 133.052 130.445C133.952 130.535 134.359 130.532 135.045 130.508C135.732 130.483 136.685 130.436 137.197 130.407C137.708 130.378 137.749 130.368 137.751 130.346C137.752 130.323 137.746 130.302 137.731 130.284C137.346 130.276 136.955 130.264 136.565 130.248C135.101 130.187 133.709 130.067 133.047 130C132.384 129.934 132.45 129.922 132.643 129.915C132.835 129.909 133.146 129.907 133.522 129.927C133.898 129.947 134.327 129.986 134.952 130.017C135.577 130.048 136.377 130.049 136.836 130.097C137.33 130.148 137.65 130.182 137.731 130.284C137.746 130.302 137.752 130.323 137.751 130.346C137.749 130.368 137.708 130.378 137.197 130.407C136.685 130.436 135.732 130.483 135.045 130.508C134.359 130.532 133.952 130.535 133.052 130.445C132.151 130.355 130.797 130.178 130.101 130.099C129.405 130.019 129.363 130.033 129.334 130.059C129.17 130.206 128.541 130.819 128.273 131.482C128.206 131.647 128.753 129.337 128.431 129.975C128.401 130.036 128.341 130.224 128.288 130.422Z" fill="#D4C9FF"/>
<path d="M127.067 129.733C127.039 129.875 126.992 130.184 126.992 130.329C126.993 130.613 127.235 129.67 127.269 129.623C127.418 129.417 127.112 130.352 127.123 130.568C127.126 130.635 127.2 130.606 127.26 130.558C127.395 130.451 127.482 130.346 127.537 130.336C127.896 130.271 127.462 131.203 127.424 131.411C127.326 131.949 128.169 130.324 128.225 130.363C128.464 130.527 128.257 130.874 128.244 130.9C128.045 131.273 128.348 130.141 128.431 129.975C128.753 129.337 128.206 131.647 128.273 131.482C128.541 130.819 129.17 130.206 129.334 130.059C129.363 130.033 129.405 130.019 130.101 130.099C130.797 130.178 132.151 130.355 133.052 130.445C133.952 130.535 134.359 130.532 135.045 130.508C135.732 130.483 136.685 130.436 137.197 130.407C137.708 130.378 137.749 130.368 137.751 130.346C137.761 130.194 137.42 130.157 136.836 130.097C136.377 130.049 135.577 130.048 134.952 130.017C134.327 129.986 133.898 129.947 133.522 129.927C133.146 129.907 132.835 129.909 132.643 129.915C132.45 129.922 132.384 129.934 133.047 130C133.709 130.067 135.101 130.187 136.565 130.248C138.03 130.309 139.524 130.306 140.534 130.272C141.544 130.238 142.024 130.171 142.238 130.129C142.453 130.086 142.389 130.068 141.696 130.052C141.002 130.035 139.68 130.02 138.89 129.995C138.101 129.97 137.883 129.935 138.831 129.904C139.779 129.873 141.9 129.847 143.014 129.836C144.171 129.824 144.282 129.851 144.503 129.879C145.224 129.864 145.472 129.801 145.675 129.778C145.794 129.77 145.947 129.767 146.105 129.765" stroke="#D4C9FF" stroke-width="2" stroke-linecap="round" stroke-linejoin="round"/>
<path d="M141.705 132.066C142.432 132.003 143.047 131.899 143.42 131.866C143.304 131.935 143.155 132.012 142.896 132.087C142.693 132.145 142.107 132.203 140.899 132.434C140.151 132.577 139.154 132.807 138.584 132.913C137.889 133.042 137.622 133.071 137.166 133.047C136.347 133.002 135.571 132.94 135.1 132.792C134.691 132.664 134.437 132.575 134.39 132.497C134.37 132.463 134.377 132.428 135.135 132.369C135.894 132.309 137.36 132.226 138.631 132.176C139.902 132.126 140.949 132.132 141.705 132.066Z" fill="#D4C9FF"/>
<path d="M131.642 132.428C131.601 132.329 131.557 132.071 131.583 131.992C131.752 131.472 130.598 131.882 130.34 131.816C130.286 131.803 130.231 131.811 130.192 131.846C130.154 131.881 130.132 131.951 130.1 131.995C130.05 132.065 129.884 132.076 129.717 132.104C129.611 132.122 129.597 132.216 129.559 132.266C129.516 132.322 129.386 132.274 129.325 132.263C129.305 132.259 129.316 132.309 129.337 132.343C129.545 132.669 130.211 132.997 130.343 133.095C130.492 133.206 131.088 133.494 131.484 133.695C131.76 133.835 131.854 134.014 131.862 134.06C131.866 134.081 131.79 134.085 131.778 134.102C131.75 134.146 132.018 134.251 132.449 134.395C133.001 134.58 133.419 134.597 134.142 134.634C134.806 134.667 136.076 134.713 136.758 134.736C137.44 134.76 137.497 134.754 137.761 134.69C138.498 134.511 139.205 134.293 139.698 134.138C140.58 133.86 140.886 133.919 141.525 133.602C141.993 133.37 142.76 132.807 143.195 132.518C143.679 132.196 143.789 132.062 143.805 131.927C143.826 131.741 142.923 131.96 141.705 132.066C140.949 132.132 139.902 132.126 138.631 132.176C137.36 132.226 135.894 132.309 135.135 132.369C134.377 132.428 134.37 132.463 134.39 132.497C134.437 132.575 134.691 132.664 135.1 132.792C135.571 132.94 136.347 133.002 137.166 133.047C137.622 133.071 137.889 133.042 138.584 132.913C139.154 132.807 140.151 132.577 140.899 132.434C142.107 132.203 142.693 132.145 142.896 132.087C143.297 131.971 143.434 131.849 143.593 131.762C143.778 131.661 144.036 131.62 144.365 131.456C144.622 131.329 144.794 131.205 144.917 131.064C144.942 131.035 144.956 131.001 144.976 131C145.165 130.99 144.983 131.658 144.871 131.999C144.798 132.222 144.58 132.308 144.314 132.507C143.898 132.82 143.46 133.01 143.107 133.203C142.901 133.316 142.562 133.538 142.242 133.732C142.06 133.843 141.812 133.945 140.719 134.376C140.381 134.51 140.144 134.562 139.402 134.713C139.045 134.786 138.827 134.794 138.699 134.809C138.498 134.834 137.933 134.889 137.229 134.956C136.771 134.989 136.006 135.006 135.426 134.998C135.357 134.992 135.312 134.984 135.255 134.957" stroke="#D4C9FF" stroke-width="6" stroke-linecap="round" stroke-linejoin="round"/>
<g filter="url(#filter1_f_7_51)">
<path d="M109 134C109 140.075 103.829 145 96.0625 145C88.296 145 82 140.075 82 134C82 127.925 88.296 123 96.0625 123C103.829 123 109 127.925 109 134Z" fill="#FFDDFF"/>
</g>
<g filter="url(#filter2_f_7_51)">
<path d="M197 133C197 139.075 191.829 144 184.062 144C176.296 144 170 139.075 170 133C170 126.925 176.296 122 184.062 122C191.829 122 197 126.925 197 133Z" fill="#FFDDFF"/>
</g>
<path d="M99.5674 123C100.616 123 100.326 124.843 101.179 125.611C102.031 126.378 102.832 125.653 102.989 126.789C103.147 127.926 101.552 128.105 100.723 128.962C99.8947 129.819 100.726 131 99.5674 131C98.4085 131 98.9326 129.667 98.1039 128.811C97.2752 127.954 96 128.015 96 126.789C96 125.564 97.1133 126.299 97.942 125.442C98.7707 124.585 98.5184 123 99.5674 123Z" fill="#D4C9FF"/>
<path d="M113.529 114C113.978 114 113.854 114.691 114.219 114.979C114.585 115.267 114.928 114.995 114.995 115.421C115.063 115.847 114.379 115.915 114.024 116.236C113.669 116.557 114.026 117 113.529 117C113.032 117 113.257 116.5 112.902 116.179C112.547 115.858 112 115.881 112 115.421C112 114.961 112.477 115.237 112.832 114.916C113.187 114.594 113.079 114 113.529 114Z" fill="white"/>
<path d="M158.529 114C158.978 114 158.854 114.691 159.219 114.979C159.585 115.266 159.928 114.995 159.995 115.421C160.063 115.847 159.379 115.914 159.024 116.236C158.669 116.557 159.026 117 158.529 117C158.032 117 158.257 116.5 157.902 116.179C157.547 115.857 157 115.88 157 115.421C157 114.961 157.477 115.237 157.832 114.916C158.187 114.594 158.079 114 158.529 114Z" fill="white"/>
<path d="M183.058 130C183.957 130 183.708 131.613 184.439 132.284C185.17 132.955 185.856 132.321 185.991 133.316C186.126 134.31 184.759 134.467 184.049 135.217C183.338 135.967 184.051 137 183.058 137C182.064 137 182.514 135.834 181.803 135.084C181.093 134.334 180 134.388 180 133.316C180 132.243 180.954 132.887 181.665 132.137C182.375 131.387 182.159 130 183.058 130Z" fill="#D4C9FF"/>
<path d="M194.548 125C195.297 125 195.09 126.383 195.699 126.958C196.308 127.533 196.88 126.99 196.992 127.842C197.105 128.695 195.966 128.829 195.374 129.472C194.782 130.114 195.376 131 194.548 131C193.72 131 194.095 130.001 193.503 129.358C192.911 128.715 192 128.761 192 127.842C192 126.923 192.795 127.474 193.387 126.832C193.979 126.189 193.799 125 194.548 125Z" fill="#D4C9FF"/>
<path d="M83 133.882C83 134.71 82.3284 135.382 81.5 135.382C80.6716 135.382 80 134.71 80 133.882C80 133.054 80.6716 132.382 81.5 132.382C82.3284 132.382 83 133.054 83 133.882Z" fill="#D4C9FF"/>
<circle cx="91.5" cy="141.5" r="1.5" fill="#D4C9FF"/>
<circle cx="106" cy="140" r="1" fill="#D4C9FF"/>
<circle cx="88" cy="125" r="1" fill="#D4C9FF"/>
<circle cx="176" cy="126" r="1" fill="#D4C9FF"/>
<circle cx="183" cy="144" r="1" fill="#D4C9FF"/>
<circle cx="194.5" cy="139.5" r="1.5" fill="#D4C9FF"/>
<circle cx="172" cy="137.5" r="1" fill="#D4C9FF"/>
<path d="M39.0113 127.665C38.6033 127.527 36.8317 127.119 29.42 125.048C26.3183 124.182 24.1546 121.574 22.1809 118.892C19.9528 115.864 19.2098 112.298 19.0117 105.949C18.9049 102.527 20.2125 98.2776 21.5594 94.1433C22.5665 91.0519 27.2249 86.422 30.2715 83.5475C31.6762 82.2221 34.3139 82.3712 36.1517 82.2947C39.438 82.158 33.7861 91.4476 31.6101 96.9469C30.6403 99.398 29.4639 102.991 28.7491 105.838C26.9528 112.993 27.9575 115.239 28.7935 118.014C29.3819 119.967 31.409 121.371 32.5156 122.296C33.7195 123.303 35.6873 124.035 37.017 124.799C38.273 125.521 39.2159 126.208 39.596 126.329C42.3338 127.201 32.9671 121.607 31.6127 120.644C29.6983 119.283 27.9007 117.127 26.754 115.523C25.3962 113.624 24.6569 112.275 24.2711 110.801C24.0169 109.831 24.2021 108.527 24.8389 105.839C26.103 100.505 28.5423 95.4789 30.269 91.9952C31.8313 88.8433 32.4264 86.7708 32.6485 86.3691C33.3346 85.1288 31.5582 89.6232 27.8173 94.3205C26.0452 96.5457 24.4125 99.5666 22.9753 103.504C22.1366 105.802 22.8882 107.537 23.6477 109.031C24.5858 110.876 25.9658 112.035 26.5684 113.205C27.1534 114.341 28.2019 115.956 32.112 119.43C34.2507 121.331 36.5646 122.603 36.7485 122.715C38.5073 123.787 33.2406 118.364 32.0715 116.839C31.157 115.645 30.2594 112.21 29.537 108.681C28.8405 105.28 30.368 102.129 30.786 100.405C31.1605 98.8609 31.3311 96.9611 31.4208 95.6716C31.4486 95.3455 31.4897 95.0249 31.5235 94.7076C31.5572 94.3903 31.5824 94.0861 31.6187 93.6214" stroke="#F7E5B2" stroke-width="6" stroke-linecap="round" stroke-linejoin="round"/>
<path d="M222.664 58.6674C223.294 58.6722 224.843 58.7229 226.538 59.0059C228.126 59.2709 229.864 59.7951 231.556 60.3763C232.399 60.6658 233.079 61.0128 234.02 61.5848C234.961 62.1569 236.11 62.961 236.971 63.6456C237.832 64.3303 238.371 64.8711 238.989 65.7201C239.606 66.5691 240.284 67.7099 240.641 68.7516C241.305 70.6872 240.936 71.8684 240.764 72.2642C240.526 72.8096 239.891 73.5492 237.841 75.161C236.455 76.2514 235.315 76.5201 234.25 76.9986C233.314 77.4189 232.474 77.6626 231.689 77.9774C231.438 78.0779 231.211 78.2403 231.013 78.2791C230.815 78.318 230.68 78.2396 230.67 78.1571C230.622 77.7442 231.837 77.3624 232.678 76.7261C233.393 76.1853 234.366 75.3403 235.437 74.5151C236.021 74.0646 236.231 73.6578 236.432 72.9298C236.75 71.7774 236.439 70.8992 235.926 69.9856C235.504 69.2325 234.677 67.8995 234.186 67.0212C233.486 65.7677 233.06 64.9103 232.489 64.166C231.911 63.4128 230.394 62.771 228.889 61.9214C228.208 61.5366 227.779 61.2267 226.608 60.7912C225.855 60.5115 225.195 60.2712 224.602 60.0733C224.452 60.0234 224.293 59.9784 224.282 59.9819C223.804 60.1328 226.663 61.2597 228.728 62.5202C229.043 62.7123 229.131 62.8208 229.806 63.5733C230.482 64.3258 231.712 65.7277 232.42 66.6304C233.129 67.5331 233.278 67.8942 233.372 68.8473C233.466 69.8004 233.5 71.3346 233.509 72.1692C233.522 73.4038 232.988 74.6555 232.641 75.5441C232.327 76.3493 231.917 76.9278 231.412 77.3517C230.982 77.7123 230.482 78.0013 229.914 78.4015C229.35 78.7999 228.618 78.851 228.46 78.9234C228.063 79.1059 229.7 78.6464 230.379 78.4389C231.026 78.2409 231.502 77.983 232.062 77.7314C232.637 77.4733 232.982 77.0568 233.453 76.5736C234.088 75.9235 234.627 74.7566 235.007 73.7188C235.1 73.4643 235.096 73.276 235.057 73.2288C234.667 72.7527 233.346 74.4727 232.861 75.0158C232.412 75.5186 231.911 76.0429 231.759 76.4156C231.57 76.8766 231.108 77.1893 230.715 77.5169C230.621 77.5948 230.549 77.6696 230.516 77.6502C230.027 77.3618 231.282 76.6266 231.849 76.1086C232.234 75.7568 232.614 75.2854 233.5 74.1179C233.883 73.612 234.047 73.1977 234.062 70.562C233.966 69.758 233.782 69.2787 233.544 68.7742C233.422 68.5371 233.298 68.3384 233.074 68.0115" stroke="#F7E5B2" stroke-width="6" stroke-linecap="round" stroke-linejoin="round"/>
<g filter="url(#filter3_f_7_51)">
<ellipse cx="116.118" cy="116.898" rx="1" ry="0.5" transform="rotate(-26.8575 116.118 116.898)" fill="white"/>
</g>
<use xlink:href="#stroke0_7_51" transform="translate(115.607 116.851) scale(0.00445823) rotate(32.7828)"/>
<use xlink:href="#stroke0_7_51" transform="translate(115.55 118.231) scale(0.00345651) rotate(-136.793)"/>
<use xlink:href="#stroke0_7_51" transform="translate(115.357 118.507) scale(0.00466784) rotate(-116.474)"/>
<use xlink:href="#stroke0_7_51" transform="translate(115.373 117.189) scale(0.00375316) rotate(32.8575)"/>
<use xlink:href="#stroke0_7_51" transform="translate(115.081 118.737) scale(0.00432621) rotate(-124.196)"/>
<use xlink:href="#stroke0_7_51" transform="translate(116.064 117.609) scale(0.00456297) rotate(128.22)"/>
<use xlink:href="#stroke0_7_51" transform="translate(114.768 117.082) scale(0.0039099) rotate(-14.3357)"/>
<use xlink:href="#stroke0_7_51" transform="translate(114.93 117.376) scale(0.00359704) rotate(-45.027)"/>
<use xlink:href="#stroke0_7_51" transform="translate(115.11 117.813) scale(0.00389347) rotate(-69.9087)"/>
<use xlink:href="#stroke0_7_51" transform="translate(116.579 117.882) scale(0.00403402) rotate(140.647)"/>
<use xlink:href="#stroke0_7_51" transform="translate(116.237 118.506) scale(0.00371562) rotate(178.531)"/>
<use xlink:href="#stroke0_7_51" transform="translate(116.057 117.666) scale(0.00358677) rotate(93.1214)"/>
<use xlink:href="#stroke0_7_51" transform="translate(115.128 117.402) scale(0.00364004) rotate(27.5982)"/>
<use xlink:href="#stroke0_7_51" transform="translate(115.013 117.393) scale(0.00286084) rotate(20.3293)"/>
<use xlink:href="#stroke0_7_51" transform="translate(115.606 117.259) scale(0.00301334) rotate(82.5863)"/>
<use xlink:href="#stroke0_7_51" transform="translate(114.833 117.244) scale(0.0027932) rotate(-16.5814)"/>
<use xlink:href="#stroke0_7_51" transform="translate(115.154 116.78) scale(0.00325615) rotate(19.4417)"/>
<use xlink:href="#stroke0_7_51" transform="translate(116.02 116.955) scale(0.00285244) rotate(102.89)"/>
<use xlink:href="#stroke0_7_51" transform="translate(115.876 117.829) scale(0.00330769) rotate(-148.31)"/>
<use xlink:href="#stroke0_7_51" transform="translate(116.419 116.999) scale(0.0035334) rotate(98.0095)"/>
<use xlink:href="#stroke0_7_51" transform="translate(116.625 117.493) scale(0.00423151) rotate(123.277)"/>
<use xlink:href="#stroke0_7_51" transform="translate(115.098 117.283) scale(0.00388644) rotate(-4.49857)"/>
<use xlink:href="#stroke0_7_51" transform="translate(115.206 118.377) scale(0.00301562) rotate(-114.176)"/>
<use xlink:href="#stroke0_7_51" transform="translate(114.506 118.269) scale(0.00419235) rotate(-75.9811)"/>
<use xlink:href="#stroke0_7_51" transform="translate(115.104 116.792) scale(0.00463163) rotate(42.3531)"/>
<use xlink:href="#stroke0_7_51" transform="translate(114.726 117.84) scale(0.00351032) rotate(-82.0608)"/>
<use xlink:href="#stroke0_7_51" transform="translate(114.861 117.276) scale(0.00301313) rotate(-42.4082)"/>
<use xlink:href="#stroke0_7_51" transform="translate(115.2 117.838) scale(0.00407862) rotate(-104.48)"/>
<use xlink:href="#stroke0_7_51" transform="translate(115.489 117.743) scale(0.00368752) rotate(-105.05)"/>
<use xlink:href="#stroke0_7_51" transform="translate(116.656 117.017) scale(0.00325161) rotate(114.568)"/>
<use xlink:href="#stroke0_7_51" transform="translate(115.844 116.795) scale(0.00363644) rotate(8.95592)"/>
<use xlink:href="#stroke0_7_51" transform="translate(115.749 118.02) scale(0.00379289) rotate(-84.5192)"/>
<use xlink:href="#stroke0_7_51" transform="translate(116.263 117.191) scale(0.0032367) rotate(39.1656)"/>
<use xlink:href="#stroke0_7_51" transform="translate(115.532 117.401) scale(0.00419603) rotate(-4.31725)"/>
<use xlink:href="#stroke0_7_51" transform="translate(115.574 117.29) scale(0.0041286) rotate(21.5343)"/>
<use xlink:href="#stroke0_7_51" transform="translate(115.038 117.829) scale(0.00331085) rotate(-25.9217)"/>
<use xlink:href="#stroke0_7_51" transform="translate(115.823 117.568) scale(0.00351052) rotate(82.0759)"/>
<use xlink:href="#stroke0_7_51" transform="translate(115.588 118.636) scale(0.00382022) rotate(-171.28)"/>
<use xlink:href="#stroke0_7_51" transform="translate(114.722 118.163) scale(0.00294549) rotate(-84.0004)"/>
<use xlink:href="#stroke0_7_51" transform="translate(115.494 116.854) scale(0.00422242) rotate(58.8844)"/>
<use xlink:href="#stroke0_7_51" transform="translate(115.79 117.01) scale(0.00300569) rotate(84.0121)"/>
<use xlink:href="#stroke0_7_51" transform="translate(115.019 117.776) scale(0.00394979) rotate(-86.6511)"/>
<use xlink:href="#stroke0_7_51" transform="translate(115.872 117.9) scale(0.00325571) rotate(-142.13)"/>
<use xlink:href="#stroke0_7_51" transform="translate(116.308 117.802) scale(0.00281046) rotate(173.926)"/>
<use xlink:href="#stroke0_7_51" transform="translate(115.804 118.223) scale(0.00307438) rotate(-126.839)"/>
<use xlink:href="#stroke0_7_51" transform="translate(116.396 118.377) scale(0.00396547) rotate(175.659)"/>
<use xlink:href="#stroke0_7_51" transform="translate(115.889 118.506) scale(0.00284627) rotate(-159.75)"/>
<use xlink:href="#stroke0_7_51" transform="translate(115.255 118.676) scale(0.00332641) rotate(-114.73)"/>
<use xlink:href="#stroke0_7_51" transform="translate(115.722 117.456) scale(0.00451351) rotate(76.1242)"/>
<use xlink:href="#stroke0_7_51" transform="translate(115.307 117.659) scale(0.00286112) rotate(73.9939)"/>
<use xlink:href="#stroke0_7_51" transform="translate(114.297 117.961) scale(0.00354467) rotate(-50.2694)"/>
<use xlink:href="#stroke0_7_51" transform="translate(115.166 116.877) scale(0.00433018) rotate(51.4425)"/>
<use xlink:href="#stroke0_7_51" transform="translate(114.607 116.989) scale(0.00394822) rotate(-7.91448)"/>
<use xlink:href="#stroke0_7_51" transform="translate(115.66 117.717) scale(0.00289124) rotate(-175.432)"/>
<use xlink:href="#stroke0_7_51" transform="translate(115.994 116.767) scale(0.00340471) rotate(95.2917)"/>
<use xlink:href="#stroke0_7_51" transform="translate(115.785 116.5) scale(0.00326543) rotate(51.6925)"/>
<use xlink:href="#stroke0_7_51" transform="translate(115.869 117.919) scale(0.00357533) rotate(-140.317)"/>
<use xlink:href="#stroke0_7_51" transform="translate(114.861 117.516) scale(0.00464702) rotate(-49.6352)"/>
<use xlink:href="#stroke0_7_51" transform="translate(114.628 117.654) scale(0.0045777) rotate(-47.903)"/>
<use xlink:href="#stroke0_7_51" transform="translate(114.519 117.594) scale(0.00395912) rotate(-33.9175)"/>
<use xlink:href="#stroke0_7_51" transform="translate(114.51 117.329) scale(0.00368104) rotate(-2.84099)"/>
<use xlink:href="#stroke0_7_51" transform="translate(114.139 117.417) scale(0.00429568) rotate(-33.224)"/>
<use xlink:href="#stroke0_7_51" transform="translate(115.543 117.608) scale(0.002997) rotate(154.773)"/>
<use xlink:href="#stroke0_7_51" transform="translate(115.592 117.594) scale(0.0030819) rotate(170.832)"/>
<use xlink:href="#stroke0_7_51" transform="translate(115.261 116.467) scale(0.00336096) rotate(40.1191)"/>
<use xlink:href="#stroke0_7_51" transform="translate(115.3 116.245) scale(0.004022) rotate(28.0399)"/>
<use xlink:href="#stroke0_7_51" transform="translate(115.255 117.234) scale(0.0029874) rotate(-85.112)"/>
<use xlink:href="#stroke0_7_51" transform="translate(115.345 117.022) scale(0.00304228) rotate(-64.867)"/>
<use xlink:href="#stroke0_7_51" transform="translate(115.972 116.22) scale(0.00346317) rotate(31.3194)"/>
<use xlink:href="#stroke0_7_51" transform="translate(115.689 117.029) scale(0.00303701) rotate(-51.977)"/>
<use xlink:href="#stroke0_7_51" transform="translate(116.561 116.66) scale(0.00308046) rotate(70.6398)"/>
<use xlink:href="#stroke0_7_51" transform="translate(116.29 118.008) scale(0.00349199) rotate(-146.411)"/>
<use xlink:href="#stroke0_7_51" transform="translate(115.363 116.896) scale(0.00463001) rotate(-2.01938)"/>
<use xlink:href="#stroke0_7_51" transform="translate(115.953 118.282) scale(0.00376622) rotate(-155.666)"/>
<use xlink:href="#stroke0_7_51" transform="translate(116.1 117.909) scale(0.00345383) rotate(155.935)"/>
<use xlink:href="#stroke0_7_51" transform="translate(115.529 118.163) scale(0.00291228) rotate(-162.168)"/>
<use xlink:href="#stroke0_7_51" transform="translate(114.54 117.686) scale(0.00350415) rotate(-61.7253)"/>
<use xlink:href="#stroke0_7_51" transform="translate(115.304 116.65) scale(0.00350167) rotate(46.8237)"/>
<use xlink:href="#stroke0_7_51" transform="translate(116.261 117.475) scale(0.00457005) rotate(154.769)"/>
<use xlink:href="#stroke0_7_51" transform="translate(116.22 116.669) scale(0.00349878) rotate(93.4512)"/>
<use xlink:href="#stroke0_7_51" transform="translate(115.453 116.649) scale(0.00377219) rotate(7.19459)"/>
<use xlink:href="#stroke0_7_51" transform="translate(116.41 117.189) scale(0.00337818) rotate(108.736)"/>
<use xlink:href="#stroke0_7_51" transform="translate(115.865 117.006) scale(0.0032688) rotate(61.1353)"/>
<use xlink:href="#stroke0_7_51" transform="translate(115.765 118.133) scale(0.00278483) rotate(-167.674)"/>
<use xlink:href="#stroke0_7_51" transform="translate(115.72 117) scale(0.00441879) rotate(75.2896)"/>
<use xlink:href="#stroke0_7_51" transform="translate(115.617 116.845) scale(0.00368442) rotate(69.6328)"/>
<use xlink:href="#stroke0_7_51" transform="translate(114.713 117.126) scale(0.00412593) rotate(-35.338)"/>
<use xlink:href="#stroke0_7_51" transform="translate(115.836 118.026) scale(0.00451842) rotate(-144.29)"/>
<use xlink:href="#stroke0_7_51" transform="translate(116.636 117.384) scale(0.00358912) rotate(147.863)"/>
<use xlink:href="#stroke0_7_51" transform="translate(116.593 117.172) scale(0.00279528) rotate(111.199)"/>
<use xlink:href="#stroke0_7_51" transform="translate(115.253 117.872) scale(0.00465912) rotate(-64.2454)"/>
<use xlink:href="#stroke0_7_51" transform="translate(116.57 117.331) scale(0.00431858) rotate(96.5382)"/>
<use xlink:href="#stroke0_7_51" transform="translate(115.75 117.225) scale(0.00341094) rotate(50.0017)"/>
<use xlink:href="#stroke0_7_51" transform="translate(115.4 118.414) scale(0.00357387) rotate(-127.345)"/>
<use xlink:href="#stroke0_7_51" transform="translate(115.661 116.993) scale(0.00303452) rotate(48.8817)"/>
<use xlink:href="#stroke0_7_51" transform="translate(115.353 117.867) scale(0.00303181) rotate(-88.8773)"/>
<use xlink:href="#stroke0_7_51" transform="translate(115.471 118.061) scale(0.00405027) rotate(-93.502)"/>
<use xlink:href="#stroke0_7_51" transform="translate(116.081 117.025) scale(0.00373891) rotate(57.2152)"/>
<use xlink:href="#stroke0_7_51" transform="translate(115.044 117.238) scale(0.00430846) rotate(-5.97382)"/>
<use xlink:href="#stroke0_7_51" transform="translate(116.044 117.843) scale(0.00311823) rotate(150.207)"/>
<use xlink:href="#stroke0_7_51" transform="translate(115.964 117.192) scale(0.00277916) rotate(98.1381)"/>
<use xlink:href="#stroke0_7_51" transform="translate(115.914 118.147) scale(0.00405058) rotate(-150.253)"/>
<use xlink:href="#stroke0_7_51" transform="translate(115.281 117.076) scale(0.00412825) rotate(-7.76893)"/>
<use xlink:href="#stroke0_7_51" transform="translate(116.241 118.497) scale(0.00440015) rotate(-171.463)"/>
<use xlink:href="#stroke0_7_51" transform="translate(114.845 117.357) scale(0.00439403) rotate(-9.12548)"/>
<use xlink:href="#stroke0_7_51" transform="translate(115.573 117) scale(0.0036774) rotate(59.3113)"/>
<use xlink:href="#stroke0_7_51" transform="translate(114.822 117.662) scale(0.00391062) rotate(-59.7339)"/>
<use xlink:href="#stroke0_7_51" transform="translate(115.768 116.951) scale(0.00283165) rotate(44.331)"/>
<use xlink:href="#stroke0_7_51" transform="translate(116.014 118.149) scale(0.00286474) rotate(-155.279)"/>
<use xlink:href="#stroke0_7_51" transform="translate(116.294 118.059) scale(0.0035322) rotate(159.376)"/>
<use xlink:href="#stroke0_7_51" transform="translate(115.286 118.599) scale(0.00440541) rotate(-126.256)"/>
<use xlink:href="#stroke0_7_51" transform="translate(114.88 116.944) scale(0.00418967) rotate(16.0068)"/>
<use xlink:href="#stroke0_7_51" transform="translate(114.867 117.959) scale(0.00347883) rotate(-104.124)"/>
<use xlink:href="#stroke0_7_51" transform="translate(114.811 116.845) scale(0.00376254) rotate(-11.7805)"/>
<use xlink:href="#stroke0_7_51" transform="translate(114.814 117.18) scale(0.00443909) rotate(-43.4152)"/>
<use xlink:href="#stroke0_7_51" transform="translate(115.933 116.849) scale(0.00281952) rotate(54.0613)"/>
<use xlink:href="#stroke0_7_51" transform="translate(116.186 118.133) scale(0.00346316) rotate(-169.196)"/>
<use xlink:href="#stroke0_7_51" transform="translate(114.943 118.024) scale(0.00416803) rotate(-66.426)"/>
<use xlink:href="#stroke0_7_51" transform="translate(114.974 117.732) scale(0.00283411) rotate(-31.9263)"/>
<use xlink:href="#stroke0_7_51" transform="translate(115.815 118.17) scale(0.00288766) rotate(156.378)"/>
<use xlink:href="#stroke0_7_51" transform="translate(114.61 117.614) scale(0.00329022) rotate(-11.2454)"/>
<use xlink:href="#stroke0_7_51" transform="translate(115.76 117.43) scale(0.00415233) rotate(106.923)"/>
<use xlink:href="#stroke0_7_51" transform="translate(115.675 117.988) scale(0.00362159) rotate(173.192)"/>
<use xlink:href="#stroke0_7_51" transform="translate(115.312 118.066) scale(0.00371722) rotate(-137.949)"/>
<use xlink:href="#stroke0_7_51" transform="translate(115.082 116.894) scale(0.00280778) rotate(-5.23053)"/>
<use xlink:href="#stroke0_7_51" transform="translate(114.98 116.768) scale(0.00434287) rotate(-18.4535)"/>
<use xlink:href="#stroke0_7_51" transform="translate(116.023 117.768) scale(0.00309223) rotate(-146.657)"/>
<use xlink:href="#stroke0_7_51" transform="translate(116.382 116.67) scale(0.00429906) rotate(68.6726)"/>
<use xlink:href="#stroke0_7_51" transform="translate(116.599 117.602) scale(0.00295821) rotate(129.648)"/>
<use xlink:href="#stroke0_7_51" transform="translate(115.934 118.359) scale(0.00304446) rotate(-138.155)"/>
<use xlink:href="#stroke0_7_51" transform="translate(116.139 117.39) scale(0.00327246) rotate(83.9265)"/>
<use xlink:href="#stroke0_7_51" transform="translate(114.903 117.26) scale(0.00438506) rotate(-2.12309)"/>
<use xlink:href="#stroke0_7_51" transform="translate(115.171 118.246) scale(0.00313626) rotate(-119.169)"/>
<use xlink:href="#stroke0_7_51" transform="translate(115.072 117.981) scale(0.00311469) rotate(-103.562)"/>
<use xlink:href="#stroke0_7_51" transform="translate(116.089 117.463) scale(0.00292206) rotate(142.567)"/>
<use xlink:href="#stroke0_7_51" transform="translate(115.073 117.129) scale(0.00380842) rotate(-30.7297)"/>
<use xlink:href="#stroke0_7_51" transform="translate(116.125 116.906) scale(0.00289671) rotate(63.0942)"/>
<use xlink:href="#stroke0_7_51" transform="translate(116.707 117.847) scale(0.00417569) rotate(147.4)"/>
<use xlink:href="#stroke0_7_51" transform="translate(115.746 117.292) scale(0.00287613) rotate(35.9267)"/>
<use xlink:href="#stroke0_7_51" transform="translate(115.7 118.618) scale(0.00370747) rotate(-144.089)"/>
<use xlink:href="#stroke0_7_51" transform="translate(114.803 117.978) scale(0.00322041) rotate(-55.0196)"/>
<use xlink:href="#stroke0_7_51" transform="translate(115.582 117.155) scale(0.00301389) rotate(60.1513)"/>
<use xlink:href="#stroke0_7_51" transform="translate(115.743 117.061) scale(0.00281352) rotate(73.7375)"/>
<use xlink:href="#stroke0_7_51" transform="translate(114.98 117.109) scale(0.00324336) rotate(-26.0218)"/>
<use xlink:href="#stroke0_7_51" transform="translate(116.084 117.535) scale(0.00283092) rotate(173.601)"/>
<use xlink:href="#stroke0_7_51" transform="translate(115.469 117.842) scale(0.00460038) rotate(-106.941)"/>
<use xlink:href="#stroke0_7_51" transform="translate(115.326 117.286) scale(0.00423178) rotate(-51.2423)"/>
<use xlink:href="#stroke0_7_51" transform="translate(116.14 116.869) scale(0.00296405) rotate(40.741)"/>
<use xlink:href="#stroke1_7_51" transform="translate(160.13 117.992) scale(0.00407192) rotate(-94.2523)"/>
<use xlink:href="#stroke1_7_51" transform="translate(160.943 117.161) scale(0.00333845) rotate(86.827)"/>
<use xlink:href="#stroke1_7_51" transform="translate(160.702 117.167) scale(0.00370361) rotate(74.5749)"/>
<use xlink:href="#stroke1_7_51" transform="translate(159.876 117.137) scale(0.00364009) rotate(13.4955)"/>
<use xlink:href="#stroke1_7_51" transform="translate(159.871 116.938) scale(0.00392962) rotate(4.82228)"/>
<use xlink:href="#stroke1_7_51" transform="translate(160.075 117.843) scale(0.0034078) rotate(-99.9626)"/>
<use xlink:href="#stroke1_7_51" transform="translate(160.817 116.381) scale(0.00418211) rotate(56.9728)"/>
<use xlink:href="#stroke1_7_51" transform="translate(160.997 116.244) scale(0.00442278) rotate(50.7205)"/>
<use xlink:href="#stroke1_7_51" transform="translate(161.645 117.789) scale(0.00427835) rotate(171.787)"/>
<use xlink:href="#stroke1_7_51" transform="translate(160.364 116.916) scale(0.00414701) rotate(1.1041)"/>
<use xlink:href="#stroke1_7_51" transform="translate(160.46 116.925) scale(0.00370762) rotate(26.8812)"/>
<use xlink:href="#stroke1_7_51" transform="translate(160.932 117.944) scale(0.00300213) rotate(163.571)"/>
<use xlink:href="#stroke1_7_51" transform="translate(159.726 118.347) scale(0.00426398) rotate(-99.8462)"/>
<use xlink:href="#stroke1_7_51" transform="translate(159.626 118.32) scale(0.00376414) rotate(-108.909)"/>
<use xlink:href="#stroke1_7_51" transform="translate(160.035 116.702) scale(0.00446815) rotate(35.2275)"/>
<use xlink:href="#stroke1_7_51" transform="translate(160.921 116.959) scale(0.00399606) rotate(84.8351)"/>
<use xlink:href="#stroke1_7_51" transform="translate(160.027 117.151) scale(0.00407488) rotate(-13.7731)"/>
<use xlink:href="#stroke1_7_51" transform="translate(160.554 117.194) scale(0.00317669) rotate(18.6744)"/>
<use xlink:href="#stroke1_7_51" transform="translate(161.208 117.275) scale(0.00441291) rotate(76.1131)"/>
<use xlink:href="#stroke1_7_51" transform="translate(159.803 118.026) scale(0.00382216) rotate(-41.8828)"/>
<use xlink:href="#stroke1_7_51" transform="translate(159.675 117.891) scale(0.00347695) rotate(-26.4858)"/>
<use xlink:href="#stroke1_7_51" transform="translate(160.622 117.764) scale(0.00353208) rotate(99.6177)"/>
<use xlink:href="#stroke1_7_51" transform="translate(160.206 117.644) scale(0.00299144) rotate(79.973)"/>
<use xlink:href="#stroke1_7_51" transform="translate(159.571 118.362) scale(0.00288376) rotate(-102.114)"/>
<use xlink:href="#stroke1_7_51" transform="translate(160.107 117.277) scale(0.00280266) rotate(50.8929)"/>
<use xlink:href="#stroke1_7_51" transform="translate(160.429 118.26) scale(0.00305373) rotate(-158.88)"/>
<use xlink:href="#stroke1_7_51" transform="translate(161.236 117.281) scale(0.00459081) rotate(107.631)"/>
<use xlink:href="#stroke1_7_51" transform="translate(160.35 118.117) scale(0.00327562) rotate(-102.801)"/>
<use xlink:href="#stroke1_7_51" transform="translate(161.682 117.813) scale(0.00408115) rotate(146.645)"/>
<use xlink:href="#stroke1_7_51" transform="translate(161.813 118.199) scale(0.00454771) rotate(158.409)"/>
<use xlink:href="#stroke1_7_51" transform="translate(161.408 118.147) scale(0.00335959) rotate(153.068)"/>
<use xlink:href="#stroke1_7_51" transform="translate(159.979 118.237) scale(0.00362238) rotate(-74.0525)"/>
<use xlink:href="#stroke1_7_51" transform="translate(161.131 118.114) scale(0.00419899) rotate(154.642)"/>
<use xlink:href="#stroke1_7_51" transform="translate(161.354 117.732) scale(0.00447836) rotate(143.175)"/>
<use xlink:href="#stroke1_7_51" transform="translate(160.178 117.486) scale(0.00289646) rotate(-49.9253)"/>
<use xlink:href="#stroke1_7_51" transform="translate(161.589 117.675) scale(0.00375493) rotate(155.783)"/>
<use xlink:href="#stroke1_7_51" transform="translate(160.555 117.124) scale(0.00348879) rotate(-25.3174)"/>
<use xlink:href="#stroke1_7_51" transform="translate(161.876 117.686) scale(0.00310268) rotate(160.494)"/>
<use xlink:href="#stroke1_7_51" transform="translate(161.87 117.422) scale(0.00301717) rotate(114.905)"/>
<use xlink:href="#stroke1_7_51" transform="translate(161.149 118.412) scale(0.003631) rotate(-136.606)"/>
<use xlink:href="#stroke1_7_51" transform="translate(160.687 118.33) scale(0.00310363) rotate(-109.904)"/>
<use xlink:href="#stroke1_7_51" transform="translate(160.278 118.12) scale(0.00293473) rotate(-74.707)"/>
<use xlink:href="#stroke1_7_51" transform="translate(160.529 117.295) scale(0.00326449) rotate(38.999)"/>
<use xlink:href="#stroke1_7_51" transform="translate(159.76 118.197) scale(0.00342693) rotate(-69.5328)"/>
<use xlink:href="#stroke1_7_51" transform="translate(160.699 118.239) scale(0.00321683) rotate(157.757)"/>
<use xlink:href="#stroke1_7_51" transform="translate(160.584 117.451) scale(0.00424656) rotate(96.9952)"/>
<use xlink:href="#stroke1_7_51" transform="translate(159.472 118.028) scale(0.00327192) rotate(-77.4557)"/>
<use xlink:href="#stroke1_7_51" transform="translate(159.783 118.242) scale(0.00409058) rotate(-103.798)"/>
<use xlink:href="#stroke1_7_51" transform="translate(160.244 118.187) scale(0.0036379) rotate(-120.014)"/>
<use xlink:href="#stroke1_7_51" transform="translate(160.807 116.98) scale(0.00287551) rotate(59.2761)"/>
<use xlink:href="#stroke1_7_51" transform="translate(161.457 117.63) scale(0.00326561) rotate(146.476)"/>
<use xlink:href="#stroke1_7_51" transform="translate(160.95 118.29) scale(0.00397212) rotate(-128.085)"/>
<use xlink:href="#stroke1_7_51" transform="translate(160.94 118.271) scale(0.00292932) rotate(-135.46)"/>
<use xlink:href="#stroke1_7_51" transform="translate(161.278 117.155) scale(0.00454035) rotate(82.2682)"/>
<use xlink:href="#stroke1_7_51" transform="translate(161.06 118.019) scale(0.00315822) rotate(149.497)"/>
<use xlink:href="#stroke1_7_51" transform="translate(159.382 118.038) scale(0.00466192) rotate(-60.7505)"/>
<use xlink:href="#stroke1_7_51" transform="translate(159.677 117.298) scale(0.00306044) rotate(9.05691)"/>
<use xlink:href="#stroke1_7_51" transform="translate(159.508 117.755) scale(0.00293856) rotate(-62.5545)"/>
<use xlink:href="#stroke1_7_51" transform="translate(160.617 117.894) scale(0.00297783) rotate(176.404)"/>
<use xlink:href="#stroke1_7_51" transform="translate(160.821 118.146) scale(0.00424423) rotate(-165.767)"/>
<use xlink:href="#stroke1_7_51" transform="translate(161.365 117.354) scale(0.00360273) rotate(128.685)"/>
<use xlink:href="#stroke1_7_51" transform="translate(160.286 117.364) scale(0.00328142) rotate(-45.3978)"/>
<use xlink:href="#stroke1_7_51" transform="translate(161.813 116.996) scale(0.00406559) rotate(103.786)"/>
<use xlink:href="#stroke1_7_51" transform="translate(160.824 117.713) scale(0.00283102) rotate(-73.9149)"/>
<use xlink:href="#stroke1_7_51" transform="translate(161.54 118.439) scale(0.00455421) rotate(-162.893)"/>
<use xlink:href="#stroke1_7_51" transform="translate(160.335 117.859) scale(0.0032123) rotate(-59.0116)"/>
<use xlink:href="#stroke1_7_51" transform="translate(160.449 118.254) scale(0.00304353) rotate(-108.049)"/>
<use xlink:href="#stroke1_7_51" transform="translate(160.005 118.242) scale(0.00371402) rotate(-91.1977)"/>
<use xlink:href="#stroke1_7_51" transform="translate(160.887 117.771) scale(0.00308964) rotate(140.511)"/>
<use xlink:href="#stroke1_7_51" transform="translate(160.895 117.424) scale(0.00331645) rotate(125.758)"/>
<use xlink:href="#stroke1_7_51" transform="translate(159.965 117.842) scale(0.00354486) rotate(-91.8401)"/>
<use xlink:href="#stroke1_7_51" transform="translate(160.216 117.001) scale(0.00293589) rotate(-8.23221)"/>
<use xlink:href="#stroke1_7_51" transform="translate(161.334 118.035) scale(0.00426414) rotate(-171.101)"/>
<use xlink:href="#stroke1_7_51" transform="translate(160.482 118.062) scale(0.00424232) rotate(-92.8972)"/>
<use xlink:href="#stroke1_7_51" transform="translate(160.755 116.999) scale(0.00329681) rotate(35.2498)"/>
<use xlink:href="#stroke1_7_51" transform="translate(160.064 118.002) scale(0.00346082) rotate(-77.5965)"/>
<use xlink:href="#stroke1_7_51" transform="translate(160.526 117.041) scale(0.00329909) rotate(53.3434)"/>
<use xlink:href="#stroke1_7_51" transform="translate(160.197 118.252) scale(0.00422332) rotate(-122.102)"/>
<use xlink:href="#stroke1_7_51" transform="translate(161.047 117.012) scale(0.00300524) rotate(94.4829)"/>
<use xlink:href="#stroke1_7_51" transform="translate(160.953 117.994) scale(0.00365822) rotate(-148.822)"/>
<use xlink:href="#stroke1_7_51" transform="translate(161.161 116.787) scale(0.0028133) rotate(58.194)"/>
<use xlink:href="#stroke1_7_51" transform="translate(161.18 116.725) scale(0.00302486) rotate(39.0927)"/>
<use xlink:href="#stroke1_7_51" transform="translate(161.935 117.061) scale(0.00309592) rotate(106.339)"/>
<use xlink:href="#stroke1_7_51" transform="translate(161.91 117.073) scale(0.00308915) rotate(86.9566)"/>
<use xlink:href="#stroke1_7_51" transform="translate(161.663 117.142) scale(0.00306543) rotate(67.0128)"/>
<use xlink:href="#stroke1_7_51" transform="translate(161.522 118.348) scale(0.00323689) rotate(-161.998)"/>
<use xlink:href="#stroke1_7_51" transform="translate(161.505 117.311) scale(0.00381838) rotate(81.597)"/>
<use xlink:href="#stroke1_7_51" transform="translate(160.247 117.691) scale(0.00331455) rotate(-25.7639)"/>
<use xlink:href="#stroke1_7_51" transform="translate(160.106 118.313) scale(0.00334155) rotate(-83.1182)"/>
<use xlink:href="#stroke1_7_51" transform="translate(160.129 118.296) scale(0.00305877) rotate(-101.247)"/>
<use xlink:href="#stroke1_7_51" transform="translate(161.039 117.322) scale(0.00327166) rotate(102.289)"/>
<use xlink:href="#stroke1_7_51" transform="translate(161.235 117.394) scale(0.00308952) rotate(121.817)"/>
<use xlink:href="#stroke1_7_51" transform="translate(161.125 116.993) scale(0.00278056) rotate(76.1994)"/>
<use xlink:href="#stroke1_7_51" transform="translate(161.652 117.459) scale(0.00327028) rotate(138.9)"/>
<use xlink:href="#stroke1_7_51" transform="translate(161.044 116.871) scale(0.00296958) rotate(22.7216)"/>
<use xlink:href="#stroke1_7_51" transform="translate(161.848 116.69) scale(0.00456251) rotate(68.6432)"/>
<use xlink:href="#stroke1_7_51" transform="translate(162.102 117.289) scale(0.00353136) rotate(95.6521)"/>
<use xlink:href="#stroke1_7_51" transform="translate(162.158 118.267) scale(0.00394907) rotate(160.904)"/>
<use xlink:href="#stroke1_7_51" transform="translate(161.776 118.751) scale(0.0044382) rotate(-173.156)"/>
<use xlink:href="#stroke1_7_51" transform="translate(161.84 118.425) scale(0.00454252) rotate(149.287)"/>
<use xlink:href="#stroke1_7_51" transform="translate(161.161 117.81) scale(0.00310459) rotate(82.7884)"/>
<use xlink:href="#stroke1_7_51" transform="translate(160.322 119.104) scale(0.0045073) rotate(-122.248)"/>
<use xlink:href="#stroke1_7_51" transform="translate(160.838 118.594) scale(0.00349595) rotate(176.688)"/>
<use xlink:href="#stroke1_7_51" transform="translate(159.808 118.283) scale(0.00371385) rotate(-78.9974)"/>
<use xlink:href="#stroke1_7_51" transform="translate(160.966 118.222) scale(0.00316589) rotate(-178.488)"/>
<use xlink:href="#stroke1_7_51" transform="translate(160.119 117.886) scale(0.00360706) rotate(-61.8616)"/>
<use xlink:href="#stroke1_7_51" transform="translate(160.91 118.415) scale(0.00332456) rotate(-133.793)"/>
<use xlink:href="#stroke1_7_51" transform="translate(160.237 117.813) scale(0.00297019) rotate(-37.1963)"/>
<use xlink:href="#stroke1_7_51" transform="translate(160.601 117.395) scale(0.00303069) rotate(42.837)"/>
<use xlink:href="#stroke1_7_51" transform="translate(159.787 118.621) scale(0.00452546) rotate(-95.2975)"/>
<use xlink:href="#stroke1_7_51" transform="translate(159.66 118.282) scale(0.00296425) rotate(-82.2984)"/>
<use xlink:href="#stroke1_7_51" transform="translate(159.89 117.043) scale(0.00450824) rotate(43.3193)"/>
<use xlink:href="#stroke1_7_51" transform="translate(159.669 117.102) scale(0.00336735) rotate(23.975)"/>
<use xlink:href="#stroke1_7_51" transform="translate(159.91 117.04) scale(0.00290529) rotate(30.3032)"/>
<use xlink:href="#stroke1_7_51" transform="translate(159.697 117.912) scale(0.00359317) rotate(-86.5604)"/>
<use xlink:href="#stroke1_7_51" transform="translate(160.422 116.733) scale(0.00360021) rotate(41.134)"/>
<use xlink:href="#stroke1_7_51" transform="translate(161.363 117.513) scale(0.00373456) rotate(144.932)"/>
<use xlink:href="#stroke1_7_51" transform="translate(161.301 116.616) scale(0.00426851) rotate(70.4152)"/>
<use xlink:href="#stroke1_7_51" transform="translate(161.159 116.519) scale(0.00416187) rotate(40.1117)"/>
<use xlink:href="#stroke1_7_51" transform="translate(161.864 116.868) scale(0.0032636) rotate(87.107)"/>
<use xlink:href="#stroke1_7_51" transform="translate(161.205 118.134) scale(0.00398466) rotate(-107.493)"/>
<use xlink:href="#stroke1_7_51" transform="translate(161.373 118.546) scale(0.00439402) rotate(-121.647)"/>
<use xlink:href="#stroke1_7_51" transform="translate(160.911 117.441) scale(0.00404729) rotate(-2.80002)"/>
<use xlink:href="#stroke1_7_51" transform="translate(160.705 118.199) scale(0.00307071) rotate(-55.0386)"/>
<use xlink:href="#stroke1_7_51" transform="translate(161.306 117.563) scale(0.0036378) rotate(61.5263)"/>
<use xlink:href="#stroke1_7_51" transform="translate(160.745 117.655) scale(0.00321388) rotate(31.0374)"/>
<use xlink:href="#stroke1_7_51" transform="translate(161.237 118.707) scale(0.00410811) rotate(172.256)"/>
<use xlink:href="#stroke1_7_51" transform="translate(160.097 118.676) scale(0.00416528) rotate(-106.395)"/>
<use xlink:href="#stroke1_7_51" transform="translate(160.946 118.377) scale(0.00382207) rotate(-168.418)"/>
<use xlink:href="#stroke1_7_51" transform="translate(160.905 116.846) scale(0.00402632) rotate(54.0001)"/>
<use xlink:href="#stroke1_7_51" transform="translate(160.492 118.134) scale(0.00439105) rotate(-99.1892)"/>
<use xlink:href="#stroke1_7_51" transform="translate(161.729 117.266) scale(0.00289222) rotate(110.575)"/>
<use xlink:href="#stroke1_7_51" transform="translate(160.653 117.424) scale(0.00292664) rotate(-23.8199)"/>
<use xlink:href="#stroke1_7_51" transform="translate(160.44 117.718) scale(0.00288314) rotate(-47.5114)"/>
<use xlink:href="#stroke1_7_51" transform="translate(161.463 117.249) scale(0.00452328) rotate(100.587)"/>
<use xlink:href="#stroke1_7_51" transform="translate(160.05 117.581) scale(0.0034614) rotate(-52.3866)"/>
<use xlink:href="#stroke1_7_51" transform="translate(160.494 116.998) scale(0.00310794) rotate(0.566642)"/>
<use xlink:href="#stroke1_7_51" transform="translate(160.384 117.507) scale(0.00345786) rotate(-46.661)"/>
<use xlink:href="#stroke1_7_51" transform="translate(160.783 117.017) scale(0.00317652) rotate(35.8084)"/>
<defs>
<filter id="filter0_f_7_51" x="0" y="0" width="265" height="302" filterUnits="userSpaceOnUse" color-interpolation-filters="sRGB">
<feFlood flood-opacity="0" result="BackgroundImageFix"/>
<feBlend mode="normal" in="SourceGraphic" in2="BackgroundImageFix" result="shape"/>
<feGaussianBlur stdDeviation="15" result="effect1_foregroundBlur_7_51"/>
</filter>
<filter id="filter1_f_7_51" x="74" y="115" width="43" height="38" filterUnits="userSpaceOnUse" color-interpolation-filters="sRGB">
<feFlood flood-opacity="0" result="BackgroundImageFix"/>
<feBlend mode="normal" in="SourceGraphic" in2="BackgroundImageFix" result="shape"/>
<feGaussianBlur stdDeviation="4" result="effect1_foregroundBlur_7_51"/>
</filter>
<filter id="filter2_f_7_51" x="162" y="114" width="43" height="38" filterUnits="userSpaceOnUse" color-interpolation-filters="sRGB">
<feFlood flood-opacity="0" result="BackgroundImageFix"/>
<feBlend mode="normal" in="SourceGraphic" in2="BackgroundImageFix" result="shape"/>
<feGaussianBlur stdDeviation="4" result="effect1_foregroundBlur_7_51"/>
</filter>
<filter id="filter3_f_7_51" x="74.1975" y="75.2628" width="83.841" height="83.2698" filterUnits="userSpaceOnUse" color-interpolation-filters="sRGB">
<feFlood flood-opacity="0" result="BackgroundImageFix"/>
<feBlend mode="normal" in="SourceGraphic" in2="BackgroundImageFix" result="shape"/>
<feGaussianBlur stdDeviation="20.5" result="effect1_foregroundBlur_7_51"/>
</filter>
<g id="stroke0_7_51" data-figma-scatter-ref="stroke0_7_51_ref" data-figma-scatter="f0.25_w0_aj180_sj0.3_r0_s17784756450208651135_sw1">
<path d="M161.622 271.62C162.801 270.44 165.001 270.908 165.598 272.466C166.28 274.243 164.308 276.953 162.333 276.953C160.932 276.952 160.386 272.855 161.622 271.62ZM125.347 271.526C126.214 268.071 129.955 267.913 129.955 271.331C129.955 274.319 127.339 276.737 125.786 275.184C125.188 274.586 124.991 272.944 125.347 271.526ZM90.9548 269.953C92.4998 269.953 93.222 272.086 92.068 273.24C90.688 274.62 88.3711 272.708 89.4011 271.04C89.771 270.442 90.4698 269.953 90.9548 269.953ZM141.512 256.176C145.165 250.962 153.033 256.131 149.547 261.453C147.571 264.469 144.663 264.661 141.955 261.953C139.547 259.545 139.508 259.036 141.512 256.176ZM73.2048 251.23C75.5376 250.164 78.9543 251.195 78.9548 252.965C78.9548 254.503 74.0936 257.221 72.4626 256.595C70.1919 255.723 70.6521 252.397 73.2048 251.23ZM179.586 250.7C181.676 246.659 184.455 247.382 184.455 251.967C184.455 254.88 184.063 255.508 182.068 255.79C178.812 256.251 177.794 254.165 179.586 250.7ZM110.955 251.953C112.5 251.953 113.222 254.086 112.068 255.24C110.688 256.62 108.371 254.708 109.401 253.04C109.771 252.442 110.47 251.953 110.955 251.953ZM125.484 235.308C127.968 233.492 129.882 233.6 130.649 235.599C131.313 237.329 128.652 239.953 126.232 239.953C123.969 239.953 123.459 236.79 125.484 235.308ZM56.4548 232.953C58.3068 232.953 60.1711 235.593 59.7741 237.655C59.5331 238.905 58.5208 239.453 56.4548 239.453C53.15 239.453 51.913 236.914 53.9948 234.405C54.6577 233.606 55.7648 232.953 56.4548 232.953ZM160.318 235.45C161.227 233.081 165.455 233.896 165.455 236.439C165.455 238.645 162.346 239.744 160.716 238.114C160.151 237.549 159.972 236.351 160.318 235.45ZM196.198 234.11C197.852 232.456 202.454 233.054 202.455 234.923C202.455 236.69 198.218 238.991 196.312 238.261C194.617 237.61 194.566 235.742 196.198 234.11ZM90.9548 234.953C91.5047 234.953 91.9547 235.403 91.9548 235.953C91.9548 236.503 91.5048 236.953 90.9548 236.953C90.4049 236.953 89.9548 236.503 89.9548 235.953C89.9548 235.403 90.4049 234.953 90.9548 234.953ZM71.5514 214.259C74.027 212.449 74.6796 212.586 77.6345 215.541C81.1173 219.024 78.0602 223.076 73.2272 221.384C69.8362 220.196 68.8974 216.2 71.5514 214.259ZM34.9665 215.44C37.4415 212.458 42.9548 214.246 42.9548 218.031C42.9548 220.921 40.2601 222.413 37.3972 221.109C34.3162 219.705 33.3325 217.409 34.9665 215.44ZM179.159 214.523C181.95 212.567 185.454 214.484 185.455 217.966C185.455 221.094 183.104 222.358 179.705 221.057C176.335 219.766 176.077 216.681 179.159 214.523ZM214.155 215.153C216.556 212.752 221.955 214.69 221.955 217.953C221.955 220.669 218.715 222.192 215.52 220.978C212.789 219.94 212.14 217.168 214.155 215.153ZM107.319 217.446C108.12 215.36 111.324 215.917 111.767 218.219C112.165 220.284 109.278 221.677 107.755 220.153C107.169 219.567 106.973 218.349 107.319 217.446ZM143.431 216.992C144.483 215.289 148.382 216.176 148.769 218.206C148.952 219.17 148.36 220.245 147.451 220.594C145.466 221.355 142.421 218.627 143.431 216.992ZM123.155 197.153C125.911 194.397 132.955 197.004 132.955 200.779C132.955 203.022 129.938 205.953 127.629 205.953C123.218 205.953 120.231 200.077 123.155 197.153ZM231.155 197.153C233.347 194.961 237.885 195.705 239.141 198.463C240.423 201.275 237.199 205.953 233.981 205.953C230.36 205.953 228.414 199.894 231.155 197.153ZM53.0827 197.007C60.5555 193.946 64.7518 201.175 57.5075 204.629C53.4156 206.581 52.3072 205.961 51.3513 201.185C50.8033 198.446 51.0548 197.838 53.0827 197.007ZM196.205 196.962C197.443 196.453 199.58 196.13 200.955 196.244C205.799 196.649 204.127 203.891 198.873 205.265C194.383 206.438 191.907 198.732 196.205 196.962ZM160.564 197.487C163.37 194.681 166.955 196.37 166.955 200.498C166.955 203.092 163.864 206.133 162.245 205.132C159.905 203.686 158.907 199.144 160.564 197.487ZM88.5593 199.108C90.4402 196.423 92.1249 196.379 94.4548 198.953C96.2018 200.883 96.2018 201.023 94.4548 202.953C90.7188 207.081 85.4033 203.614 88.5593 199.108ZM18.2048 196.615C21.6617 195.22 24.3307 197.341 23.7819 201.046C23.2719 204.483 20.1722 205.903 18.3962 203.513C16.6233 201.125 16.517 197.296 18.2048 196.615ZM177.574 178.242C182.074 174.952 188.12 178.726 186.369 183.733C185.322 186.727 180.908 187.989 178.493 185.984C176.118 184.014 175.604 179.682 177.574 178.242ZM213.622 178.62C214.727 177.515 219.471 177.87 220.755 179.153C222.641 181.039 222.168 184.768 219.888 185.989C215.974 188.084 210.544 181.697 213.622 178.62ZM72.0075 181.391C73.1314 180.037 73.4588 180.028 74.7555 181.325C76.4955 183.065 75.6838 185.953 73.4548 185.953C71.31 185.953 70.4556 183.26 72.0075 181.391ZM106.155 179.153C107.61 177.698 109.02 177.648 112.39 178.929C116.93 180.655 115.094 185.953 109.955 185.953C105.588 185.953 103.354 181.954 106.155 179.153ZM143.339 180.395C144.582 177.156 149.462 180.083 148.774 183.655C148.301 186.112 143.609 186.104 143.134 183.645C142.943 182.651 143.035 181.188 143.339 180.395ZM35.3386 180.395C36.0985 178.414 40.8669 178.56 41.6462 180.589C42.5552 182.958 40.613 185.453 37.86 185.453C35.4112 185.453 34.2738 183.17 35.3386 180.395ZM249.136 180.234C249.767 179.474 251.447 178.987 252.869 179.152C256.507 179.575 256.625 184.287 253.011 184.798C249.914 185.235 247.422 182.3 249.136 180.234ZM1.62176 179.62C2.75172 178.489 3.84231 178.873 4.85028 180.757C6.07525 183.045 4.65825 185.437 2.55633 184.63C0.953362 184.015 0.367857 180.874 1.62176 179.62ZM195.155 161.153C199.2 157.108 205.563 162.129 203.137 167.453C200.971 172.208 193.955 170.297 193.955 164.953C193.955 163.523 194.495 161.813 195.155 161.153ZM122.99 161.888C125.209 157.743 133.337 161.845 132.76 166.819C132.498 169.085 131.921 169.497 128.635 169.768C122.714 170.255 120.308 166.899 122.99 161.888ZM159.2 162.108C160.917 160.391 166.018 161.077 167.349 163.203C168.87 165.631 167.004 168.364 163.544 168.775C158.898 169.328 156.169 165.139 159.2 162.108ZM17.8679 163.847C20.8558 161.398 23.3531 161.759 23.7731 164.704C24.2421 167.99 19.5737 170.013 17.1677 167.566C15.5488 165.919 15.5872 165.716 17.8679 163.847ZM53.3181 164.45C54.2271 162.081 58.4548 162.896 58.4548 165.439C58.4546 167.645 55.3465 168.744 53.7165 167.114C53.1515 166.549 52.972 165.351 53.3181 164.45ZM90.4011 165.04C91.191 163.762 92.6307 163.62 93.3298 164.751C94.2917 166.307 92.1385 168.536 90.8845 167.282C90.2495 166.647 90.0321 165.638 90.4011 165.04ZM233.455 164.953C233.939 164.17 234.514 164.112 235.181 164.779C235.731 165.329 235.854 166.307 235.455 166.953C234.971 167.736 234.396 167.794 233.729 167.127C233.179 166.577 233.056 165.599 233.455 164.953ZM72.155 143.153C74.201 141.107 75.9215 141.814 77.6335 145.405C79.4463 149.206 78.3548 151.953 75.0329 151.953C71.365 151.953 69.3911 145.917 72.155 143.153ZM140.99 143.888C143.209 139.743 151.337 143.845 150.76 148.819C150.498 151.085 149.921 151.497 146.635 151.768C140.714 152.255 138.308 148.899 140.99 143.888ZM214.371 144.31C215.315 141.85 219.296 143.115 220.383 146.22C221.148 148.402 220.991 149.346 219.635 150.702C216.554 153.783 212.585 148.965 214.371 144.31ZM104.622 142.62C105.751 141.49 112.484 141.883 113.755 143.153C116.971 146.369 114.013 150.953 108.721 150.953C104.846 150.953 102.025 145.217 104.622 142.62ZM248.622 142.62C251.659 139.582 258.199 144.269 256.629 148.359C255.819 150.469 251.281 151.469 249.442 149.942C247.938 148.694 247.395 143.847 248.622 142.62ZM35.155 143.153C36.8479 141.46 39.9777 141.664 42.1257 143.608C44.6817 145.921 44.4038 148.791 41.4958 150.116C36.8629 152.227 31.7242 146.584 35.155 143.153ZM178.001 143.398C180.63 140.23 185.955 142.327 185.955 146.531C185.955 149.786 183.572 151.325 180.239 150.22C177.156 149.198 176.032 145.771 178.001 143.398ZM1.18426 144.124C2.95012 142.358 5.40436 143.125 5.75262 145.551C6.10859 148.031 3.58934 150.41 1.46844 149.597C-0.35556 148.897 -0.51474 145.823 1.18426 144.124ZM125.522 126.879C128.986 123.051 132.286 125.737 130.077 130.585C129.266 132.364 128.29 132.997 126.706 132.771C123.867 132.366 123.266 129.372 125.522 126.879ZM90.9548 125.953C92.4118 125.953 94.1733 128.943 93.5983 130.44C93.2793 131.272 92.0897 131.953 90.9548 131.953C88.4109 131.953 87.3045 129.442 88.9665 127.44C89.6443 126.623 90.5397 125.953 90.9548 125.953ZM231.291 128.52C232.202 126.145 235.955 126.518 235.955 128.984C235.955 131.343 233.31 132.708 231.755 131.153C231.169 130.567 230.96 129.382 231.291 128.52ZM53.3386 125.395C54.5816 122.156 59.4621 125.083 58.7741 128.655C58.3011 131.112 53.6088 131.104 53.1345 128.645C52.9435 127.651 53.0347 126.187 53.3386 125.395ZM196.339 125.395C197.582 122.156 202.462 125.083 201.774 128.655C201.301 131.112 196.609 131.104 196.134 128.645C195.943 127.651 196.035 126.187 196.339 125.395ZM18.7048 123.033C21.1938 121.583 21.6583 121.691 23.3513 124.108C26.093 128.023 21.5169 132.115 18.155 128.753C16.4142 127.012 16.684 124.21 18.7048 123.033ZM161.551 123.259C163.914 121.531 164.32 121.594 166.508 124.013C168.958 126.719 167.37 129.453 163.346 129.453C159.801 129.453 158.626 125.398 161.551 123.259ZM176.792 108.412C178.282 105.142 183.179 105.008 185.398 108.176C187.404 111.039 187.359 112.233 185.143 114.97C181.634 119.302 174.413 113.633 176.792 108.412ZM35.1979 107.11C38.6209 103.687 45.9262 109.585 43.3542 113.694C42.0142 115.835 37.3673 116.54 35.3952 114.903C33.6272 113.436 33.51 108.798 35.1979 107.11ZM106.155 108.153C109.274 105.034 116.569 109.157 114.312 112.763C113.008 114.846 108.341 115.518 106.395 113.903C104.642 112.449 104.531 109.777 106.155 108.153ZM248.885 109.537C251.5 106.388 256.541 108.671 255.774 112.655C255.536 113.889 254.525 114.453 252.55 114.453C248.965 114.453 246.996 111.813 248.885 109.537ZM72.7048 108.014C75.4777 106.366 78.4171 107.183 78.7741 109.701C79.1151 112.099 74.9529 114.55 72.2829 113.525C70.3741 112.793 70.6471 109.236 72.7048 108.014ZM215.577 108.24C217.848 106.579 219.901 106.913 221.325 109.175C222.736 111.415 221.245 112.962 217.404 113.243C213.892 113.5 212.731 110.321 215.577 108.24ZM1.36395 110.329C1.86393 109.025 2.29819 108.896 3.18817 109.786C4.07716 110.675 4.07356 111.235 3.17156 112.137C1.6438 113.664 0.517033 112.537 1.36395 110.329ZM142.401 110.04C143.42 108.392 146.955 108.737 146.955 110.484C146.955 111.327 146.25 112.286 145.388 112.617C143.507 113.339 141.456 111.569 142.401 110.04ZM198.332 89.7538C199.769 88.8208 202.955 91.7971 202.955 94.0731C202.955 95.0681 202.085 96.3478 201.021 96.9179C195.912 99.6518 193.399 92.9558 198.332 89.7538ZM53.9899 90.8876C55.8619 87.3906 59.9547 89.2641 59.9548 93.6181C59.9548 96.521 56.4363 98.597 54.3913 96.9003C52.6944 95.4924 52.5651 93.5514 53.9899 90.8876ZM124.949 91.4599C126.748 89.2921 129.384 89.9791 129.775 92.7177C130.185 95.5927 127.358 96.7845 125.213 94.6405C123.886 93.3125 123.842 92.7938 124.949 91.4599ZM89.9548 92.453C89.9548 91.5361 90.439 90.9484 91.03 91.1454C91.6209 91.3424 92.1051 91.9311 92.1052 92.453C92.1052 92.975 91.621 93.5646 91.03 93.7616C90.439 93.9584 89.9548 93.3699 89.9548 92.453ZM106.012 73.8466C107.322 71.3997 110.172 71.4303 112.421 73.9159C114.452 76.1589 113.962 78.3446 111.082 79.8856C108.331 81.3569 104.461 76.7474 106.012 73.8466ZM71.7048 71.0331C74.3617 69.4851 75.3919 69.7252 77.9968 72.4979C80.7467 75.4249 79.87 78.213 76.0202 78.7831C71.4303 79.4631 67.953 73.2192 71.7048 71.0331ZM178.705 71.0331C181.256 69.5472 182.435 69.7213 184.38 71.871C188.234 76.1299 184.175 80.7468 179.008 77.9813C176.476 76.6264 176.293 72.4382 178.705 71.0331ZM214.155 72.1532C216.97 69.3383 222.522 71.8079 221.788 75.5477C221.237 78.3477 218.469 79.5078 215.533 78.1698C212.799 76.9248 212.163 74.1451 214.155 72.1532ZM34.9665 72.4403C36.6944 70.3586 40.3146 70.5883 42.4206 72.9159C45.6806 76.5179 42.054 80.2297 37.363 78.0927C34.3142 76.7037 33.3375 74.4023 34.9665 72.4403ZM143.955 74.452C145.696 72.3551 148.455 72.9691 148.455 75.453C148.455 77.662 145.336 78.7338 143.691 77.0888C142.956 76.3538 143.035 75.5609 143.955 74.452ZM91.4548 52.953C93.1596 52.953 95.0944 53.4933 95.7546 54.1532C98.5466 56.9452 95.7296 62.953 91.6286 62.953C87.2179 62.9526 84.2312 57.0771 87.155 54.1532C87.8149 53.4932 89.7498 52.9531 91.4548 52.953ZM123.2 54.1083C125.267 52.0413 129.919 53.1572 131.727 56.1522C134.87 61.3581 127.017 65.7348 123.512 60.7304C121.632 58.0474 121.526 55.7823 123.2 54.1083ZM234.455 52.953C238.789 52.953 240.43 57.6659 237.3 61.1239C235.255 63.3829 234.127 63.4187 231.784 61.2977C229.695 59.4067 229.388 55.9202 231.155 54.1532C231.815 53.4933 233.3 52.9531 234.455 52.953ZM53.2048 53.9618C59.9138 51.1998 63.8957 56.4948 58.3747 60.8368C54.8289 63.6256 53.1163 63.5071 51.9304 60.3886C50.4444 56.4786 50.7419 54.9758 53.2048 53.9618ZM160.564 54.4872C163.37 51.6813 166.955 53.3701 166.955 57.4979C166.955 60.0919 163.864 63.1327 162.245 62.1317C159.905 60.6855 158.907 56.1441 160.564 54.4872ZM195.587 54.2323C198.69 51.9604 203.399 52.9831 203.752 56.0048C204.176 59.6408 200.641 62.5122 196.284 62.0712C194.057 61.8459 193.515 55.7487 195.587 54.2323ZM17.3473 55.3749C18.0766 53.4732 21.3902 53.5672 23.0251 55.537C24.5491 57.374 23.2487 60.2546 20.6647 60.7636C18.8228 61.126 16.5544 57.4408 17.3473 55.3749ZM106.155 36.1532C107.628 34.6802 109.479 34.6282 112.021 35.9882C115.627 37.9182 113.772 42.953 109.455 42.953C105.545 42.9528 103.522 38.7862 106.155 36.1532ZM177.155 35.1532C178.855 33.4532 183.471 33.6656 185.005 35.5136C188.37 39.5695 181.517 45.325 177.395 41.9032C175.645 40.4512 175.515 36.7932 177.155 35.1532ZM35.9948 36.4052C37.4888 34.6052 39.0418 34.5655 41.3727 36.2694C43.4967 37.8224 43.1708 40.7877 40.7048 42.3407C37.2398 44.5227 33.338 39.6062 35.9948 36.4052ZM71.155 36.1532C73.9848 33.3233 79.3609 36.035 78.8005 40.0087C78.5425 41.8396 77.7501 42.5343 75.6452 42.7753C70.9402 43.3153 68.1341 39.1742 71.155 36.1532ZM144.168 37.1415C145.639 35.6695 146.962 36.0172 148.367 38.244C149.929 40.72 146.723 43.835 144.505 41.995C142.643 40.4492 142.527 38.7813 144.168 37.1415ZM214.033 37.3593C215.127 36.0413 215.465 36.0355 216.737 37.3075C218.339 38.9095 217.62 40.953 215.455 40.953C213.373 40.9529 212.623 39.0582 214.033 37.3593ZM195.979 22.9296C199.6 19.3086 204.362 21.486 203.791 26.5018C203.483 29.2058 203.13 29.453 199.57 29.453C194.623 29.453 192.788 26.1205 195.979 22.9296ZM122.99 18.8876C125.233 14.6976 132.366 18.4534 131.789 23.5214C131.523 25.8602 130.909 26.5165 128.754 26.7655C123.152 27.4112 120.424 23.6833 122.99 18.8876ZM54.11 19.5575C58.552 16.4465 62.0997 21.7018 58.0378 25.3778C56.5088 26.7618 55.6998 26.8869 54.0378 25.9979C51.3411 24.5539 51.3753 21.4734 54.11 19.5575ZM163.455 17.953C166.798 17.953 168.127 23.2547 165.179 24.8329C161.481 26.8119 158.169 22.1392 161.155 19.1532C161.815 18.4933 162.85 17.9532 163.455 17.953ZM91.9548 21.953C92.5047 21.953 92.9547 22.4031 92.9548 22.953C92.9548 23.503 92.5048 23.953 91.9548 23.953C91.4049 23.9529 90.9548 23.5029 90.9548 22.953C90.9548 22.4032 91.4049 21.9532 91.9548 21.953ZM107.061 1.75477C108.525 -0.979662 111.39 -0.0898075 111.772 3.21669C112.171 6.67755 109.3 8.145 107.349 5.47743C106.397 4.17543 106.317 3.14477 107.061 1.75477ZM142.264 1.58876C143.043 -0.437771 147.288 -0.554549 148.915 1.40517C150.968 3.87805 149.761 6.45278 146.55 6.45302C143.362 6.45302 141.297 4.10976 142.264 1.58876Z" fill="#FFFEFE"/>
</g>
<path id="stroke0_7_51_ref" d="M115.754 117.68C115.731 117.68 115.684 117.679 115.623 117.669C115.595 117.664 115.579 117.643 115.567 117.623C115.555 117.603 115.55 117.58 115.557 117.564C115.564 117.547 115.584 117.537 115.606 117.537C115.629 117.537 115.653 117.547 115.665 117.569C115.742 117.702 115.503 117.884 115.426 117.943C115.382 117.976 115.318 117.965 115.266 117.941C115.209 117.916 115.195 117.827 115.194 117.743C115.192 117.611 115.348 117.504 115.477 117.426C115.536 117.39 115.613 117.399 115.679 117.409C115.741 117.418 115.772 117.487 115.796 117.549C115.826 117.63 115.828 117.751 115.821 117.871C115.816 117.953 115.755 118.002 115.692 118.044C115.568 118.126 115.42 118.109 115.302 118.063C115.169 118.01 115.223 117.748 115.284 117.523C115.317 117.402 115.418 117.326 115.486 117.267C115.596 117.172 115.726 117.205 115.785 117.226C115.907 117.269 115.875 117.488 115.842 117.61C115.806 117.746 115.652 117.772 115.39 117.866C115.295 117.901 115.223 117.895 115.163 117.88C115.131 117.873 115.107 117.835 115.096 117.8C115.044 117.634 115.321 117.387 115.593 117.204C115.713 117.123 115.861 117.149 115.979 117.175C116.209 117.225 116.283 117.47 116.331 117.624C116.345 117.669 116.34 117.726 116.318 117.773C116.203 118.015 115.618 118.055 115.339 118.09C115.298 118.095 115.261 118.086 115.231 118.074C115.202 118.062 115.181 118.042 115.167 118.011C115.096 117.848 115.273 117.59 115.46 117.391C115.545 117.3 115.658 117.279 115.736 117.269C115.772 117.265 115.801 117.277 115.825 117.292C115.93 117.358 115.93 117.575 115.888 117.774C115.846 117.972 115.563 118.082 115.315 118.155C115.187 118.192 115.091 118.161 115.046 118.135C114.985 118.099 114.97 118.023 114.965 117.964C114.952 117.803 115.11 117.528 115.341 117.265C115.433 117.162 115.547 117.131 115.631 117.114C115.705 117.1 115.76 117.117 115.794 117.147C115.831 117.179 115.834 117.246 115.833 117.312C115.83 117.478 115.531 117.628 115.282 117.749C115.183 117.797 115.089 117.808 115.015 117.814C114.98 117.817 114.95 117.807 114.931 117.772C114.885 117.681 114.943 117.522 115.042 117.355C115.15 117.172 115.348 117.056 115.532 116.959C115.874 116.779 116.111 116.858 116.175 116.884C116.247 116.914 116.278 117.008 116.293 117.1C116.307 117.193 116.247 117.288 116.167 117.376C115.978 117.583 115.646 117.63 115.413 117.667C115.324 117.681 115.251 117.658 115.205 117.622C115.155 117.582 115.183 117.483 115.215 117.394C115.289 117.183 115.539 117.115 115.666 117.092C115.728 117.08 115.785 117.099 115.825 117.132C115.878 117.175 115.873 117.269 115.864 117.348C115.845 117.529 115.604 117.642 115.396 117.72C115.353 117.736 115.321 117.735 115.294 117.72C115.267 117.706 115.245 117.673 115.241 117.632C115.234 117.543 115.314 117.442 115.409 117.343C115.508 117.24 115.646 117.196 115.766 117.171C115.871 117.149 115.96 117.185 116.024 117.24C116.16 117.356 116.113 117.571 116.07 117.693C116.03 117.808 115.845 117.832 115.714 117.859C115.643 117.874 115.582 117.856 115.544 117.833C115.525 117.822 115.518 117.792 115.515 117.756C115.513 117.721 115.518 117.676 115.541 117.637C115.628 117.484 115.806 117.478 115.934 117.474C115.965 117.473 115.993 117.493 116.006 117.52C116.019 117.547 116.015 117.587 116.003 117.616C115.957 117.727 115.777 117.754 115.627 117.778C115.594 117.784 115.567 117.778 115.545 117.768C115.524 117.759 115.509 117.743 115.497 117.721C115.473 117.674 115.478 117.609 115.497 117.545C115.516 117.485 115.585 117.452 115.645 117.423C115.699 117.397 115.761 117.398 115.818 117.411C115.847 117.418 115.864 117.453 115.875 117.485C115.898 117.55 115.877 117.637 115.845 117.722C115.798 117.85 115.634 117.86 115.519 117.869C115.492 117.871 115.467 117.862 115.443 117.842C115.387 117.798 115.371 117.726 115.376 117.669C115.381 117.612 115.433 117.566 115.489 117.529C115.545 117.491 115.611 117.48 115.668 117.473C115.72 117.467 115.77 117.487 115.812 117.521C115.857 117.558 115.851 117.626 115.839 117.672C115.81 117.778 115.55 117.788 115.35 117.78C115.284 117.778 115.253 117.694 115.228 117.623C115.203 117.553 115.212 117.479 115.224 117.412C115.236 117.345 115.303 117.297 115.379 117.262C115.46 117.224 115.556 117.231 115.64 117.234C115.713 117.237 115.769 117.283 115.811 117.341C115.856 117.402 115.856 117.487 115.842 117.566C115.81 117.738 115.559 117.844 115.311 117.954C115.245 117.983 115.174 117.984 115.101 117.977C115.071 117.974 115.061 117.948 115.055 117.914C115.026 117.757 115.093 117.631 115.191 117.488C115.323 117.294 115.576 117.183 115.765 117.148C115.809 117.139 115.853 117.154 115.89 117.17C116.034 117.236 116.041 117.46 116.041 117.622C116.041 117.702 115.97 117.76 115.892 117.802C115.696 117.907 115.466 117.855 115.389 117.807C115.349 117.782 115.356 117.705 115.353 117.633C115.35 117.557 115.393 117.49 115.438 117.44C115.515 117.355 115.68 117.32 115.852 117.336C115.94 117.344 115.952 117.476 115.959 117.558C115.966 117.642 115.91 117.724 115.844 117.798C115.723 117.935 115.549 117.941 115.445 117.924C115.33 117.906 115.427 117.586 115.553 117.327C115.616 117.196 115.75 117.141 115.846 117.105C115.917 117.079 115.989 117.09 116.057 117.119C116.111 117.188 116.143 117.265 116.155 117.328C116.159 117.361 116.16 117.394 116.16 117.428"/>
<g id="stroke1_7_51" data-figma-scatter-ref="stroke1_7_51_ref" data-figma-scatter="f0.25_w0_aj180_sj0.3_r0_s16415130258700920116_sw1">
<path d="M161.622 271.62C162.801 270.44 165.001 270.908 165.598 272.466C166.28 274.243 164.308 276.953 162.333 276.953C160.932 276.952 160.386 272.855 161.622 271.62ZM125.347 271.526C126.214 268.071 129.955 267.913 129.955 271.331C129.955 274.319 127.339 276.737 125.786 275.184C125.188 274.586 124.991 272.944 125.347 271.526ZM90.9548 269.953C92.4998 269.953 93.222 272.086 92.068 273.24C90.688 274.62 88.3711 272.708 89.4011 271.04C89.771 270.442 90.4698 269.953 90.9548 269.953ZM141.512 256.176C145.165 250.962 153.033 256.131 149.547 261.453C147.571 264.469 144.663 264.661 141.955 261.953C139.547 259.545 139.508 259.036 141.512 256.176ZM73.2048 251.23C75.5376 250.164 78.9543 251.195 78.9548 252.965C78.9548 254.503 74.0936 257.221 72.4626 256.595C70.1919 255.723 70.6521 252.397 73.2048 251.23ZM179.586 250.7C181.676 246.659 184.455 247.382 184.455 251.967C184.455 254.88 184.063 255.508 182.068 255.79C178.812 256.251 177.794 254.165 179.586 250.7ZM110.955 251.953C112.5 251.953 113.222 254.086 112.068 255.24C110.688 256.62 108.371 254.708 109.401 253.04C109.771 252.442 110.47 251.953 110.955 251.953ZM125.484 235.308C127.968 233.492 129.882 233.6 130.649 235.599C131.313 237.329 128.652 239.953 126.232 239.953C123.969 239.953 123.459 236.79 125.484 235.308ZM56.4548 232.953C58.3068 232.953 60.1711 235.593 59.7741 237.655C59.5331 238.905 58.5208 239.453 56.4548 239.453C53.15 239.453 51.913 236.914 53.9948 234.405C54.6577 233.606 55.7648 232.953 56.4548 232.953ZM160.318 235.45C161.227 233.081 165.455 233.896 165.455 236.439C165.455 238.645 162.346 239.744 160.716 238.114C160.151 237.549 159.972 236.351 160.318 235.45ZM196.198 234.11C197.852 232.456 202.454 233.054 202.455 234.923C202.455 236.69 198.218 238.991 196.312 238.261C194.617 237.61 194.566 235.742 196.198 234.11ZM90.9548 234.953C91.5047 234.953 91.9547 235.403 91.9548 235.953C91.9548 236.503 91.5048 236.953 90.9548 236.953C90.4049 236.953 89.9548 236.503 89.9548 235.953C89.9548 235.403 90.4049 234.953 90.9548 234.953ZM71.5514 214.259C74.027 212.449 74.6796 212.586 77.6345 215.541C81.1173 219.024 78.0602 223.076 73.2272 221.384C69.8362 220.196 68.8974 216.2 71.5514 214.259ZM34.9665 215.44C37.4415 212.458 42.9548 214.246 42.9548 218.031C42.9548 220.921 40.2601 222.413 37.3972 221.109C34.3162 219.705 33.3325 217.409 34.9665 215.44ZM179.159 214.523C181.95 212.567 185.454 214.484 185.455 217.966C185.455 221.094 183.104 222.358 179.705 221.057C176.335 219.766 176.077 216.681 179.159 214.523ZM214.155 215.153C216.556 212.752 221.955 214.69 221.955 217.953C221.955 220.669 218.715 222.192 215.52 220.978C212.789 219.94 212.14 217.168 214.155 215.153ZM107.319 217.446C108.12 215.36 111.324 215.917 111.767 218.219C112.165 220.284 109.278 221.677 107.755 220.153C107.169 219.567 106.973 218.349 107.319 217.446ZM143.431 216.992C144.483 215.289 148.382 216.176 148.769 218.206C148.952 219.17 148.36 220.245 147.451 220.594C145.466 221.355 142.421 218.627 143.431 216.992ZM123.155 197.153C125.911 194.397 132.955 197.004 132.955 200.779C132.955 203.022 129.938 205.953 127.629 205.953C123.218 205.953 120.231 200.077 123.155 197.153ZM231.155 197.153C233.347 194.961 237.885 195.705 239.141 198.463C240.423 201.275 237.199 205.953 233.981 205.953C230.36 205.953 228.414 199.894 231.155 197.153ZM53.0827 197.007C60.5555 193.946 64.7518 201.175 57.5075 204.629C53.4156 206.581 52.3072 205.961 51.3513 201.185C50.8033 198.446 51.0548 197.838 53.0827 197.007ZM196.205 196.962C197.443 196.453 199.58 196.13 200.955 196.244C205.799 196.649 204.127 203.891 198.873 205.265C194.383 206.438 191.907 198.732 196.205 196.962ZM160.564 197.487C163.37 194.681 166.955 196.37 166.955 200.498C166.955 203.092 163.864 206.133 162.245 205.132C159.905 203.686 158.907 199.144 160.564 197.487ZM88.5593 199.108C90.4402 196.423 92.1249 196.379 94.4548 198.953C96.2018 200.883 96.2018 201.023 94.4548 202.953C90.7188 207.081 85.4033 203.614 88.5593 199.108ZM18.2048 196.615C21.6617 195.22 24.3307 197.341 23.7819 201.046C23.2719 204.483 20.1722 205.903 18.3962 203.513C16.6233 201.125 16.517 197.296 18.2048 196.615ZM177.574 178.242C182.074 174.952 188.12 178.726 186.369 183.733C185.322 186.727 180.908 187.989 178.493 185.984C176.118 184.014 175.604 179.682 177.574 178.242ZM213.622 178.62C214.727 177.515 219.471 177.87 220.755 179.153C222.641 181.039 222.168 184.768 219.888 185.989C215.974 188.084 210.544 181.697 213.622 178.62ZM72.0075 181.391C73.1314 180.037 73.4588 180.028 74.7555 181.325C76.4955 183.065 75.6838 185.953 73.4548 185.953C71.31 185.953 70.4556 183.26 72.0075 181.391ZM106.155 179.153C107.61 177.698 109.02 177.648 112.39 178.929C116.93 180.655 115.094 185.953 109.955 185.953C105.588 185.953 103.354 181.954 106.155 179.153ZM143.339 180.395C144.582 177.156 149.462 180.083 148.774 183.655C148.301 186.112 143.609 186.104 143.134 183.645C142.943 182.651 143.035 181.188 143.339 180.395ZM35.3386 180.395C36.0985 178.414 40.8669 178.56 41.6462 180.589C42.5552 182.958 40.613 185.453 37.86 185.453C35.4112 185.453 34.2738 183.17 35.3386 180.395ZM249.136 180.234C249.767 179.474 251.447 178.987 252.869 179.152C256.507 179.575 256.625 184.287 253.011 184.798C249.914 185.235 247.422 182.3 249.136 180.234ZM1.62176 179.62C2.75172 178.489 3.84231 178.873 4.85028 180.757C6.07525 183.045 4.65825 185.437 2.55633 184.63C0.953362 184.015 0.367857 180.874 1.62176 179.62ZM195.155 161.153C199.2 157.108 205.563 162.129 203.137 167.453C200.971 172.208 193.955 170.297 193.955 164.953C193.955 163.523 194.495 161.813 195.155 161.153ZM122.99 161.888C125.209 157.743 133.337 161.845 132.76 166.819C132.498 169.085 131.921 169.497 128.635 169.768C122.714 170.255 120.308 166.899 122.99 161.888ZM159.2 162.108C160.917 160.391 166.018 161.077 167.349 163.203C168.87 165.631 167.004 168.364 163.544 168.775C158.898 169.328 156.169 165.139 159.2 162.108ZM17.8679 163.847C20.8558 161.398 23.3531 161.759 23.7731 164.704C24.2421 167.99 19.5737 170.013 17.1677 167.566C15.5488 165.919 15.5872 165.716 17.8679 163.847ZM53.3181 164.45C54.2271 162.081 58.4548 162.896 58.4548 165.439C58.4546 167.645 55.3465 168.744 53.7165 167.114C53.1515 166.549 52.972 165.351 53.3181 164.45ZM90.4011 165.04C91.191 163.762 92.6307 163.62 93.3298 164.751C94.2917 166.307 92.1385 168.536 90.8845 167.282C90.2495 166.647 90.0321 165.638 90.4011 165.04ZM233.455 164.953C233.939 164.17 234.514 164.112 235.181 164.779C235.731 165.329 235.854 166.307 235.455 166.953C234.971 167.736 234.396 167.794 233.729 167.127C233.179 166.577 233.056 165.599 233.455 164.953ZM72.155 143.153C74.201 141.107 75.9215 141.814 77.6335 145.405C79.4463 149.206 78.3548 151.953 75.0329 151.953C71.365 151.953 69.3911 145.917 72.155 143.153ZM140.99 143.888C143.209 139.743 151.337 143.845 150.76 148.819C150.498 151.085 149.921 151.497 146.635 151.768C140.714 152.255 138.308 148.899 140.99 143.888ZM214.371 144.31C215.315 141.85 219.296 143.115 220.383 146.22C221.148 148.402 220.991 149.346 219.635 150.702C216.554 153.783 212.585 148.965 214.371 144.31ZM104.622 142.62C105.751 141.49 112.484 141.883 113.755 143.153C116.971 146.369 114.013 150.953 108.721 150.953C104.846 150.953 102.025 145.217 104.622 142.62ZM248.622 142.62C251.659 139.582 258.199 144.269 256.629 148.359C255.819 150.469 251.281 151.469 249.442 149.942C247.938 148.694 247.395 143.847 248.622 142.62ZM35.155 143.153C36.8479 141.46 39.9777 141.664 42.1257 143.608C44.6817 145.921 44.4038 148.791 41.4958 150.116C36.8629 152.227 31.7242 146.584 35.155 143.153ZM178.001 143.398C180.63 140.23 185.955 142.327 185.955 146.531C185.955 149.786 183.572 151.325 180.239 150.22C177.156 149.198 176.032 145.771 178.001 143.398ZM1.18426 144.124C2.95012 142.358 5.40436 143.125 5.75262 145.551C6.10859 148.031 3.58934 150.41 1.46844 149.597C-0.35556 148.897 -0.51474 145.823 1.18426 144.124ZM125.522 126.879C128.986 123.051 132.286 125.737 130.077 130.585C129.266 132.364 128.29 132.997 126.706 132.771C123.867 132.366 123.266 129.372 125.522 126.879ZM90.9548 125.953C92.4118 125.953 94.1733 128.943 93.5983 130.44C93.2793 131.272 92.0897 131.953 90.9548 131.953C88.4109 131.953 87.3045 129.442 88.9665 127.44C89.6443 126.623 90.5397 125.953 90.9548 125.953ZM231.291 128.52C232.202 126.145 235.955 126.518 235.955 128.984C235.955 131.343 233.31 132.708 231.755 131.153C231.169 130.567 230.96 129.382 231.291 128.52ZM53.3386 125.395C54.5816 122.156 59.4621 125.083 58.7741 128.655C58.3011 131.112 53.6088 131.104 53.1345 128.645C52.9435 127.651 53.0347 126.187 53.3386 125.395ZM196.339 125.395C197.582 122.156 202.462 125.083 201.774 128.655C201.301 131.112 196.609 131.104 196.134 128.645C195.943 127.651 196.035 126.187 196.339 125.395ZM18.7048 123.033C21.1938 121.583 21.6583 121.691 23.3513 124.108C26.093 128.023 21.5169 132.115 18.155 128.753C16.4142 127.012 16.684 124.21 18.7048 123.033ZM161.551 123.259C163.914 121.531 164.32 121.594 166.508 124.013C168.958 126.719 167.37 129.453 163.346 129.453C159.801 129.453 158.626 125.398 161.551 123.259ZM176.792 108.412C178.282 105.142 183.179 105.008 185.398 108.176C187.404 111.039 187.359 112.233 185.143 114.97C181.634 119.302 174.413 113.633 176.792 108.412ZM35.1979 107.11C38.6209 103.687 45.9262 109.585 43.3542 113.694C42.0142 115.835 37.3673 116.54 35.3952 114.903C33.6272 113.436 33.51 108.798 35.1979 107.11ZM106.155 108.153C109.274 105.034 116.569 109.157 114.312 112.763C113.008 114.846 108.341 115.518 106.395 113.903C104.642 112.449 104.531 109.777 106.155 108.153ZM248.885 109.537C251.5 106.388 256.541 108.671 255.774 112.655C255.536 113.889 254.525 114.453 252.55 114.453C248.965 114.453 246.996 111.813 248.885 109.537ZM72.7048 108.014C75.4777 106.366 78.4171 107.183 78.7741 109.701C79.1151 112.099 74.9529 114.55 72.2829 113.525C70.3741 112.793 70.6471 109.236 72.7048 108.014ZM215.577 108.24C217.848 106.579 219.901 106.913 221.325 109.175C222.736 111.415 221.245 112.962 217.404 113.243C213.892 113.5 212.731 110.321 215.577 108.24ZM1.36395 110.329C1.86393 109.025 2.29819 108.896 3.18817 109.786C4.07716 110.675 4.07356 111.235 3.17156 112.137C1.6438 113.664 0.517033 112.537 1.36395 110.329ZM142.401 110.04C143.42 108.392 146.955 108.737 146.955 110.484C146.955 111.327 146.25 112.286 145.388 112.617C143.507 113.339 141.456 111.569 142.401 110.04ZM198.332 89.7538C199.769 88.8208 202.955 91.7971 202.955 94.0731C202.955 95.0681 202.085 96.3478 201.021 96.9179C195.912 99.6518 193.399 92.9558 198.332 89.7538ZM53.9899 90.8876C55.8619 87.3906 59.9547 89.2641 59.9548 93.6181C59.9548 96.521 56.4363 98.597 54.3913 96.9003C52.6944 95.4924 52.5651 93.5514 53.9899 90.8876ZM124.949 91.4599C126.748 89.2921 129.384 89.9791 129.775 92.7177C130.185 95.5927 127.358 96.7845 125.213 94.6405C123.886 93.3125 123.842 92.7938 124.949 91.4599ZM89.9548 92.453C89.9548 91.5361 90.439 90.9484 91.03 91.1454C91.6209 91.3424 92.1051 91.9311 92.1052 92.453C92.1052 92.975 91.621 93.5646 91.03 93.7616C90.439 93.9584 89.9548 93.3699 89.9548 92.453ZM106.012 73.8466C107.322 71.3997 110.172 71.4303 112.421 73.9159C114.452 76.1589 113.962 78.3446 111.082 79.8856C108.331 81.3569 104.461 76.7474 106.012 73.8466ZM71.7048 71.0331C74.3617 69.4851 75.3919 69.7252 77.9968 72.4979C80.7467 75.4249 79.87 78.213 76.0202 78.7831C71.4303 79.4631 67.953 73.2192 71.7048 71.0331ZM178.705 71.0331C181.256 69.5472 182.435 69.7213 184.38 71.871C188.234 76.1299 184.175 80.7468 179.008 77.9813C176.476 76.6264 176.293 72.4382 178.705 71.0331ZM214.155 72.1532C216.97 69.3383 222.522 71.8079 221.788 75.5477C221.237 78.3477 218.469 79.5078 215.533 78.1698C212.799 76.9248 212.163 74.1451 214.155 72.1532ZM34.9665 72.4403C36.6944 70.3586 40.3146 70.5883 42.4206 72.9159C45.6806 76.5179 42.054 80.2297 37.363 78.0927C34.3142 76.7037 33.3375 74.4023 34.9665 72.4403ZM143.955 74.452C145.696 72.3551 148.455 72.9691 148.455 75.453C148.455 77.662 145.336 78.7338 143.691 77.0888C142.956 76.3538 143.035 75.5609 143.955 74.452ZM91.4548 52.953C93.1596 52.953 95.0944 53.4933 95.7546 54.1532C98.5466 56.9452 95.7296 62.953 91.6286 62.953C87.2179 62.9526 84.2312 57.0771 87.155 54.1532C87.8149 53.4932 89.7498 52.9531 91.4548 52.953ZM123.2 54.1083C125.267 52.0413 129.919 53.1572 131.727 56.1522C134.87 61.3581 127.017 65.7348 123.512 60.7304C121.632 58.0474 121.526 55.7823 123.2 54.1083ZM234.455 52.953C238.789 52.953 240.43 57.6659 237.3 61.1239C235.255 63.3829 234.127 63.4187 231.784 61.2977C229.695 59.4067 229.388 55.9202 231.155 54.1532C231.815 53.4933 233.3 52.9531 234.455 52.953ZM53.2048 53.9618C59.9138 51.1998 63.8957 56.4948 58.3747 60.8368C54.8289 63.6256 53.1163 63.5071 51.9304 60.3886C50.4444 56.4786 50.7419 54.9758 53.2048 53.9618ZM160.564 54.4872C163.37 51.6813 166.955 53.3701 166.955 57.4979C166.955 60.0919 163.864 63.1327 162.245 62.1317C159.905 60.6855 158.907 56.1441 160.564 54.4872ZM195.587 54.2323C198.69 51.9604 203.399 52.9831 203.752 56.0048C204.176 59.6408 200.641 62.5122 196.284 62.0712C194.057 61.8459 193.515 55.7487 195.587 54.2323ZM17.3473 55.3749C18.0766 53.4732 21.3902 53.5672 23.0251 55.537C24.5491 57.374 23.2487 60.2546 20.6647 60.7636C18.8228 61.126 16.5544 57.4408 17.3473 55.3749ZM106.155 36.1532C107.628 34.6802 109.479 34.6282 112.021 35.9882C115.627 37.9182 113.772 42.953 109.455 42.953C105.545 42.9528 103.522 38.7862 106.155 36.1532ZM177.155 35.1532C178.855 33.4532 183.471 33.6656 185.005 35.5136C188.37 39.5695 181.517 45.325 177.395 41.9032C175.645 40.4512 175.515 36.7932 177.155 35.1532ZM35.9948 36.4052C37.4888 34.6052 39.0418 34.5655 41.3727 36.2694C43.4967 37.8224 43.1708 40.7877 40.7048 42.3407C37.2398 44.5227 33.338 39.6062 35.9948 36.4052ZM71.155 36.1532C73.9848 33.3233 79.3609 36.035 78.8005 40.0087C78.5425 41.8396 77.7501 42.5343 75.6452 42.7753C70.9402 43.3153 68.1341 39.1742 71.155 36.1532ZM144.168 37.1415C145.639 35.6695 146.962 36.0172 148.367 38.244C149.929 40.72 146.723 43.835 144.505 41.995C142.643 40.4492 142.527 38.7813 144.168 37.1415ZM214.033 37.3593C215.127 36.0413 215.465 36.0355 216.737 37.3075C218.339 38.9095 217.62 40.953 215.455 40.953C213.373 40.9529 212.623 39.0582 214.033 37.3593ZM195.979 22.9296C199.6 19.3086 204.362 21.486 203.791 26.5018C203.483 29.2058 203.13 29.453 199.57 29.453C194.623 29.453 192.788 26.1205 195.979 22.9296ZM122.99 18.8876C125.233 14.6976 132.366 18.4534 131.789 23.5214C131.523 25.8602 130.909 26.5165 128.754 26.7655C123.152 27.4112 120.424 23.6833 122.99 18.8876ZM54.11 19.5575C58.552 16.4465 62.0997 21.7018 58.0378 25.3778C56.5088 26.7618 55.6998 26.8869 54.0378 25.9979C51.3411 24.5539 51.3753 21.4734 54.11 19.5575ZM163.455 17.953C166.798 17.953 168.127 23.2547 165.179 24.8329C161.481 26.8119 158.169 22.1392 161.155 19.1532C161.815 18.4933 162.85 17.9532 163.455 17.953ZM91.9548 21.953C92.5047 21.953 92.9547 22.4031 92.9548 22.953C92.9548 23.503 92.5048 23.953 91.9548 23.953C91.4049 23.9529 90.9548 23.5029 90.9548 22.953C90.9548 22.4032 91.4049 21.9532 91.9548 21.953ZM107.061 1.75477C108.525 -0.979662 111.39 -0.0898075 111.772 3.21669C112.171 6.67755 109.3 8.145 107.349 5.47743C106.397 4.17543 106.317 3.14477 107.061 1.75477ZM142.264 1.58876C143.043 -0.437771 147.288 -0.554549 148.915 1.40517C150.968 3.87805 149.761 6.45278 146.55 6.45302C143.362 6.45302 141.297 4.10976 142.264 1.58876Z" fill="#FFFEFE"/>
</g>
<path id="stroke1_7_51_ref" d="M160.653 117.429C160.606 117.521 160.406 117.74 160.241 117.816C160.086 117.889 160.366 117.416 160.598 117.171C160.68 117.085 160.782 117.07 160.874 117.071C160.919 117.071 160.958 117.095 160.982 117.126C161.032 117.187 161.021 117.283 161.003 117.365C160.965 117.541 160.577 117.628 160.201 117.709C160.109 117.729 160.007 117.721 159.972 117.701C159.936 117.681 159.967 117.638 160.007 117.607C160.167 117.479 160.483 117.495 160.733 117.599C160.793 117.624 160.797 117.721 160.804 117.784C160.81 117.848 160.799 117.901 160.773 117.942C160.664 118.114 160.38 118.131 159.948 118.13C159.861 118.13 159.842 118.062 159.844 118.019C159.85 117.824 160.208 117.718 160.496 117.638C160.699 117.581 160.871 117.613 160.959 117.635C161.006 117.647 161.05 117.685 161.062 117.729C161.075 117.772 161.051 117.827 161.002 117.865C160.894 117.948 160.669 117.945 160.465 117.911C160.385 117.898 160.383 117.798 160.412 117.732C160.558 117.398 161.079 117.37 161.288 117.364C161.334 117.362 161.367 117.421 161.372 117.46C161.408 117.769 160.589 117.925 160.093 117.991C159.992 118.004 159.94 117.939 159.921 117.897C159.902 117.856 159.916 117.814 159.951 117.771C160.126 117.562 160.475 117.505 160.877 117.484C160.959 117.479 161.001 117.49 161.036 117.515C161.071 117.54 161.098 117.584 161.059 117.628C160.757 117.964 160.193 117.822 160.04 117.799C159.981 117.79 159.972 117.734 159.987 117.693C160.071 117.466 160.543 117.396 161.182 117.367C161.301 117.362 161.313 117.467 161.295 117.521C161.215 117.757 160.805 117.758 160.437 117.754C160.352 117.753 160.298 117.692 160.274 117.639C160.249 117.585 160.259 117.52 160.287 117.475C160.397 117.297 160.75 117.352 160.997 117.379C161.086 117.389 161.085 117.456 161.026 117.502C160.699 117.757 160.415 117.658 160.353 117.635C160.325 117.625 160.338 117.571 160.366 117.53C160.512 117.308 160.912 117.291 161.328 117.296C161.42 117.297 161.466 117.371 161.489 117.423C161.512 117.476 161.507 117.527 161.484 117.579C161.375 117.822 161.014 117.912 160.609 117.943C160.522 117.95 160.482 117.871 160.465 117.818C160.448 117.765 160.459 117.713 160.489 117.663C160.554 117.556 160.669 117.494 160.784 117.45C161.111 117.326 161.424 117.425 161.497 117.481C161.573 117.54 161.579 117.661 161.565 117.772C161.533 118.019 161.166 118.13 160.848 118.241C160.707 118.289 160.578 118.289 160.476 118.275C160.425 118.268 160.385 118.219 160.367 118.159C160.349 118.1 160.357 118.021 160.38 117.96C160.423 117.848 160.533 117.788 160.637 117.742C160.731 117.7 160.847 117.709 160.934 117.734C160.968 117.743 160.952 117.802 160.913 117.834C160.555 118.123 159.862 117.922 159.813 117.854C159.788 117.819 159.828 117.756 159.876 117.701C160.128 117.422 160.674 117.342 161.292 117.297C161.413 117.288 161.467 117.318 161.506 117.352C161.585 117.421 161.6 117.559 161.599 117.702C161.598 117.853 161.466 117.986 161.312 118.097C161.024 118.304 160.765 118.251 160.642 118.216C160.579 118.198 160.539 118.122 160.516 118.063C160.492 118.003 160.492 117.946 160.508 117.89C160.58 117.639 160.875 117.514 161.089 117.453C161.143 117.437 161.202 117.444 161.223 117.473C161.244 117.503 161.228 117.563 161.197 117.603C161.081 117.76 160.832 117.721 160.701 117.699C160.647 117.69 160.639 117.618 160.664 117.568C160.69 117.518 160.755 117.474 160.827 117.449C160.898 117.424 160.974 117.419 161.013 117.44C161.052 117.462 161.052 117.509 161.016 117.543C160.981 117.578 160.911 117.598 160.838 117.618"/>
</defs>
</svg>
